%TF.GenerationSoftware,KiCad,Pcbnew,7.0.6-7.0.6~ubuntu22.04.1*%
%TF.CreationDate,2023-07-29T13:02:37+05:30*%
%TF.ProjectId,SDC_Schematic,5344435f-5363-4686-956d-617469632e6b,rev?*%
%TF.SameCoordinates,Original*%
%TF.FileFunction,Drillmap*%
%TF.FilePolarity,Positive*%
%FSLAX45Y45*%
G04 Gerber Fmt 4.5, Leading zero omitted, Abs format (unit mm)*
G04 Created by KiCad (PCBNEW 7.0.6-7.0.6~ubuntu22.04.1) date 2023-07-29 13:02:37*
%MOMM*%
%LPD*%
G01*
G04 APERTURE LIST*
%ADD10C,0.100000*%
%ADD11C,0.200000*%
%ADD12C,0.350000*%
G04 APERTURE END LIST*
D10*
X9400000Y-4225100D02*
X19700000Y-4225100D01*
X19700000Y-10325100D01*
X9400000Y-10325100D01*
X9400000Y-4225100D01*
D11*
D12*
X9825000Y-4825000D02*
X10175000Y-5175000D01*
X10175000Y-4825000D02*
X9825000Y-5175000D01*
X9825000Y-9625000D02*
X10175000Y-9975000D01*
X10175000Y-9625000D02*
X9825000Y-9975000D01*
X19025000Y-4825000D02*
X19375000Y-5175000D01*
X19375000Y-4825000D02*
X19025000Y-5175000D01*
X19025000Y-9625000D02*
X19375000Y-9975000D01*
X19375000Y-9625000D02*
X19025000Y-9975000D01*
D11*
X9655777Y-10641584D02*
X9655777Y-10441584D01*
X9655777Y-10441584D02*
X9703396Y-10441584D01*
X9703396Y-10441584D02*
X9731967Y-10451108D01*
X9731967Y-10451108D02*
X9751015Y-10470155D01*
X9751015Y-10470155D02*
X9760539Y-10489203D01*
X9760539Y-10489203D02*
X9770063Y-10527298D01*
X9770063Y-10527298D02*
X9770063Y-10555870D01*
X9770063Y-10555870D02*
X9760539Y-10593965D01*
X9760539Y-10593965D02*
X9751015Y-10613012D01*
X9751015Y-10613012D02*
X9731967Y-10632060D01*
X9731967Y-10632060D02*
X9703396Y-10641584D01*
X9703396Y-10641584D02*
X9655777Y-10641584D01*
X9855777Y-10641584D02*
X9855777Y-10508250D01*
X9855777Y-10546346D02*
X9865301Y-10527298D01*
X9865301Y-10527298D02*
X9874824Y-10517774D01*
X9874824Y-10517774D02*
X9893872Y-10508250D01*
X9893872Y-10508250D02*
X9912920Y-10508250D01*
X9979586Y-10641584D02*
X9979586Y-10508250D01*
X9979586Y-10441584D02*
X9970063Y-10451108D01*
X9970063Y-10451108D02*
X9979586Y-10460631D01*
X9979586Y-10460631D02*
X9989110Y-10451108D01*
X9989110Y-10451108D02*
X9979586Y-10441584D01*
X9979586Y-10441584D02*
X9979586Y-10460631D01*
X10103396Y-10641584D02*
X10084348Y-10632060D01*
X10084348Y-10632060D02*
X10074824Y-10613012D01*
X10074824Y-10613012D02*
X10074824Y-10441584D01*
X10208158Y-10641584D02*
X10189110Y-10632060D01*
X10189110Y-10632060D02*
X10179586Y-10613012D01*
X10179586Y-10613012D02*
X10179586Y-10441584D01*
X10436729Y-10641584D02*
X10436729Y-10441584D01*
X10436729Y-10441584D02*
X10503396Y-10584441D01*
X10503396Y-10584441D02*
X10570063Y-10441584D01*
X10570063Y-10441584D02*
X10570063Y-10641584D01*
X10751015Y-10641584D02*
X10751015Y-10536822D01*
X10751015Y-10536822D02*
X10741491Y-10517774D01*
X10741491Y-10517774D02*
X10722444Y-10508250D01*
X10722444Y-10508250D02*
X10684348Y-10508250D01*
X10684348Y-10508250D02*
X10665301Y-10517774D01*
X10751015Y-10632060D02*
X10731967Y-10641584D01*
X10731967Y-10641584D02*
X10684348Y-10641584D01*
X10684348Y-10641584D02*
X10665301Y-10632060D01*
X10665301Y-10632060D02*
X10655777Y-10613012D01*
X10655777Y-10613012D02*
X10655777Y-10593965D01*
X10655777Y-10593965D02*
X10665301Y-10574917D01*
X10665301Y-10574917D02*
X10684348Y-10565393D01*
X10684348Y-10565393D02*
X10731967Y-10565393D01*
X10731967Y-10565393D02*
X10751015Y-10555870D01*
X10846253Y-10508250D02*
X10846253Y-10708250D01*
X10846253Y-10517774D02*
X10865301Y-10508250D01*
X10865301Y-10508250D02*
X10903396Y-10508250D01*
X10903396Y-10508250D02*
X10922444Y-10517774D01*
X10922444Y-10517774D02*
X10931967Y-10527298D01*
X10931967Y-10527298D02*
X10941491Y-10546346D01*
X10941491Y-10546346D02*
X10941491Y-10603489D01*
X10941491Y-10603489D02*
X10931967Y-10622536D01*
X10931967Y-10622536D02*
X10922444Y-10632060D01*
X10922444Y-10632060D02*
X10903396Y-10641584D01*
X10903396Y-10641584D02*
X10865301Y-10641584D01*
X10865301Y-10641584D02*
X10846253Y-10632060D01*
X11027205Y-10622536D02*
X11036729Y-10632060D01*
X11036729Y-10632060D02*
X11027205Y-10641584D01*
X11027205Y-10641584D02*
X11017682Y-10632060D01*
X11017682Y-10632060D02*
X11027205Y-10622536D01*
X11027205Y-10622536D02*
X11027205Y-10641584D01*
X11027205Y-10517774D02*
X11036729Y-10527298D01*
X11036729Y-10527298D02*
X11027205Y-10536822D01*
X11027205Y-10536822D02*
X11017682Y-10527298D01*
X11017682Y-10527298D02*
X11027205Y-10517774D01*
X11027205Y-10517774D02*
X11027205Y-10536822D01*
X9195000Y-10870100D02*
X9395000Y-11070100D01*
X9395000Y-10870100D02*
X9195000Y-11070100D01*
X9636729Y-10861584D02*
X9760539Y-10861584D01*
X9760539Y-10861584D02*
X9693872Y-10937774D01*
X9693872Y-10937774D02*
X9722444Y-10937774D01*
X9722444Y-10937774D02*
X9741491Y-10947298D01*
X9741491Y-10947298D02*
X9751015Y-10956822D01*
X9751015Y-10956822D02*
X9760539Y-10975870D01*
X9760539Y-10975870D02*
X9760539Y-11023489D01*
X9760539Y-11023489D02*
X9751015Y-11042536D01*
X9751015Y-11042536D02*
X9741491Y-11052060D01*
X9741491Y-11052060D02*
X9722444Y-11061584D01*
X9722444Y-11061584D02*
X9665301Y-11061584D01*
X9665301Y-11061584D02*
X9646253Y-11052060D01*
X9646253Y-11052060D02*
X9636729Y-11042536D01*
X9846253Y-11042536D02*
X9855777Y-11052060D01*
X9855777Y-11052060D02*
X9846253Y-11061584D01*
X9846253Y-11061584D02*
X9836729Y-11052060D01*
X9836729Y-11052060D02*
X9846253Y-11042536D01*
X9846253Y-11042536D02*
X9846253Y-11061584D01*
X10036729Y-10861584D02*
X9941491Y-10861584D01*
X9941491Y-10861584D02*
X9931967Y-10956822D01*
X9931967Y-10956822D02*
X9941491Y-10947298D01*
X9941491Y-10947298D02*
X9960539Y-10937774D01*
X9960539Y-10937774D02*
X10008158Y-10937774D01*
X10008158Y-10937774D02*
X10027205Y-10947298D01*
X10027205Y-10947298D02*
X10036729Y-10956822D01*
X10036729Y-10956822D02*
X10046253Y-10975870D01*
X10046253Y-10975870D02*
X10046253Y-11023489D01*
X10046253Y-11023489D02*
X10036729Y-11042536D01*
X10036729Y-11042536D02*
X10027205Y-11052060D01*
X10027205Y-11052060D02*
X10008158Y-11061584D01*
X10008158Y-11061584D02*
X9960539Y-11061584D01*
X9960539Y-11061584D02*
X9941491Y-11052060D01*
X9941491Y-11052060D02*
X9931967Y-11042536D01*
X10170063Y-10861584D02*
X10189110Y-10861584D01*
X10189110Y-10861584D02*
X10208158Y-10871108D01*
X10208158Y-10871108D02*
X10217682Y-10880631D01*
X10217682Y-10880631D02*
X10227205Y-10899679D01*
X10227205Y-10899679D02*
X10236729Y-10937774D01*
X10236729Y-10937774D02*
X10236729Y-10985393D01*
X10236729Y-10985393D02*
X10227205Y-11023489D01*
X10227205Y-11023489D02*
X10217682Y-11042536D01*
X10217682Y-11042536D02*
X10208158Y-11052060D01*
X10208158Y-11052060D02*
X10189110Y-11061584D01*
X10189110Y-11061584D02*
X10170063Y-11061584D01*
X10170063Y-11061584D02*
X10151015Y-11052060D01*
X10151015Y-11052060D02*
X10141491Y-11042536D01*
X10141491Y-11042536D02*
X10131967Y-11023489D01*
X10131967Y-11023489D02*
X10122444Y-10985393D01*
X10122444Y-10985393D02*
X10122444Y-10937774D01*
X10122444Y-10937774D02*
X10131967Y-10899679D01*
X10131967Y-10899679D02*
X10141491Y-10880631D01*
X10141491Y-10880631D02*
X10151015Y-10871108D01*
X10151015Y-10871108D02*
X10170063Y-10861584D01*
X10360539Y-10861584D02*
X10379586Y-10861584D01*
X10379586Y-10861584D02*
X10398634Y-10871108D01*
X10398634Y-10871108D02*
X10408158Y-10880631D01*
X10408158Y-10880631D02*
X10417682Y-10899679D01*
X10417682Y-10899679D02*
X10427205Y-10937774D01*
X10427205Y-10937774D02*
X10427205Y-10985393D01*
X10427205Y-10985393D02*
X10417682Y-11023489D01*
X10417682Y-11023489D02*
X10408158Y-11042536D01*
X10408158Y-11042536D02*
X10398634Y-11052060D01*
X10398634Y-11052060D02*
X10379586Y-11061584D01*
X10379586Y-11061584D02*
X10360539Y-11061584D01*
X10360539Y-11061584D02*
X10341491Y-11052060D01*
X10341491Y-11052060D02*
X10331967Y-11042536D01*
X10331967Y-11042536D02*
X10322444Y-11023489D01*
X10322444Y-11023489D02*
X10312920Y-10985393D01*
X10312920Y-10985393D02*
X10312920Y-10937774D01*
X10312920Y-10937774D02*
X10322444Y-10899679D01*
X10322444Y-10899679D02*
X10331967Y-10880631D01*
X10331967Y-10880631D02*
X10341491Y-10871108D01*
X10341491Y-10871108D02*
X10360539Y-10861584D01*
X10512920Y-11061584D02*
X10512920Y-10928250D01*
X10512920Y-10947298D02*
X10522444Y-10937774D01*
X10522444Y-10937774D02*
X10541491Y-10928250D01*
X10541491Y-10928250D02*
X10570063Y-10928250D01*
X10570063Y-10928250D02*
X10589110Y-10937774D01*
X10589110Y-10937774D02*
X10598634Y-10956822D01*
X10598634Y-10956822D02*
X10598634Y-11061584D01*
X10598634Y-10956822D02*
X10608158Y-10937774D01*
X10608158Y-10937774D02*
X10627205Y-10928250D01*
X10627205Y-10928250D02*
X10655777Y-10928250D01*
X10655777Y-10928250D02*
X10674825Y-10937774D01*
X10674825Y-10937774D02*
X10684348Y-10956822D01*
X10684348Y-10956822D02*
X10684348Y-11061584D01*
X10779586Y-11061584D02*
X10779586Y-10928250D01*
X10779586Y-10947298D02*
X10789110Y-10937774D01*
X10789110Y-10937774D02*
X10808158Y-10928250D01*
X10808158Y-10928250D02*
X10836729Y-10928250D01*
X10836729Y-10928250D02*
X10855777Y-10937774D01*
X10855777Y-10937774D02*
X10865301Y-10956822D01*
X10865301Y-10956822D02*
X10865301Y-11061584D01*
X10865301Y-10956822D02*
X10874825Y-10937774D01*
X10874825Y-10937774D02*
X10893872Y-10928250D01*
X10893872Y-10928250D02*
X10922444Y-10928250D01*
X10922444Y-10928250D02*
X10941491Y-10937774D01*
X10941491Y-10937774D02*
X10951015Y-10956822D01*
X10951015Y-10956822D02*
X10951015Y-11061584D01*
X11341491Y-10852060D02*
X11170063Y-11109203D01*
X11598634Y-10861584D02*
X11617682Y-10861584D01*
X11617682Y-10861584D02*
X11636729Y-10871108D01*
X11636729Y-10871108D02*
X11646253Y-10880631D01*
X11646253Y-10880631D02*
X11655777Y-10899679D01*
X11655777Y-10899679D02*
X11665301Y-10937774D01*
X11665301Y-10937774D02*
X11665301Y-10985393D01*
X11665301Y-10985393D02*
X11655777Y-11023489D01*
X11655777Y-11023489D02*
X11646253Y-11042536D01*
X11646253Y-11042536D02*
X11636729Y-11052060D01*
X11636729Y-11052060D02*
X11617682Y-11061584D01*
X11617682Y-11061584D02*
X11598634Y-11061584D01*
X11598634Y-11061584D02*
X11579586Y-11052060D01*
X11579586Y-11052060D02*
X11570063Y-11042536D01*
X11570063Y-11042536D02*
X11560539Y-11023489D01*
X11560539Y-11023489D02*
X11551015Y-10985393D01*
X11551015Y-10985393D02*
X11551015Y-10937774D01*
X11551015Y-10937774D02*
X11560539Y-10899679D01*
X11560539Y-10899679D02*
X11570063Y-10880631D01*
X11570063Y-10880631D02*
X11579586Y-10871108D01*
X11579586Y-10871108D02*
X11598634Y-10861584D01*
X11751015Y-11042536D02*
X11760539Y-11052060D01*
X11760539Y-11052060D02*
X11751015Y-11061584D01*
X11751015Y-11061584D02*
X11741491Y-11052060D01*
X11741491Y-11052060D02*
X11751015Y-11042536D01*
X11751015Y-11042536D02*
X11751015Y-11061584D01*
X11951015Y-11061584D02*
X11836729Y-11061584D01*
X11893872Y-11061584D02*
X11893872Y-10861584D01*
X11893872Y-10861584D02*
X11874825Y-10890155D01*
X11874825Y-10890155D02*
X11855777Y-10909203D01*
X11855777Y-10909203D02*
X11836729Y-10918727D01*
X12017682Y-10861584D02*
X12141491Y-10861584D01*
X12141491Y-10861584D02*
X12074825Y-10937774D01*
X12074825Y-10937774D02*
X12103396Y-10937774D01*
X12103396Y-10937774D02*
X12122444Y-10947298D01*
X12122444Y-10947298D02*
X12131967Y-10956822D01*
X12131967Y-10956822D02*
X12141491Y-10975870D01*
X12141491Y-10975870D02*
X12141491Y-11023489D01*
X12141491Y-11023489D02*
X12131967Y-11042536D01*
X12131967Y-11042536D02*
X12122444Y-11052060D01*
X12122444Y-11052060D02*
X12103396Y-11061584D01*
X12103396Y-11061584D02*
X12046253Y-11061584D01*
X12046253Y-11061584D02*
X12027206Y-11052060D01*
X12027206Y-11052060D02*
X12017682Y-11042536D01*
X12208158Y-10861584D02*
X12341491Y-10861584D01*
X12341491Y-10861584D02*
X12255777Y-11061584D01*
X12446253Y-10947298D02*
X12427206Y-10937774D01*
X12427206Y-10937774D02*
X12417682Y-10928250D01*
X12417682Y-10928250D02*
X12408158Y-10909203D01*
X12408158Y-10909203D02*
X12408158Y-10899679D01*
X12408158Y-10899679D02*
X12417682Y-10880631D01*
X12417682Y-10880631D02*
X12427206Y-10871108D01*
X12427206Y-10871108D02*
X12446253Y-10861584D01*
X12446253Y-10861584D02*
X12484348Y-10861584D01*
X12484348Y-10861584D02*
X12503396Y-10871108D01*
X12503396Y-10871108D02*
X12512920Y-10880631D01*
X12512920Y-10880631D02*
X12522444Y-10899679D01*
X12522444Y-10899679D02*
X12522444Y-10909203D01*
X12522444Y-10909203D02*
X12512920Y-10928250D01*
X12512920Y-10928250D02*
X12503396Y-10937774D01*
X12503396Y-10937774D02*
X12484348Y-10947298D01*
X12484348Y-10947298D02*
X12446253Y-10947298D01*
X12446253Y-10947298D02*
X12427206Y-10956822D01*
X12427206Y-10956822D02*
X12417682Y-10966346D01*
X12417682Y-10966346D02*
X12408158Y-10985393D01*
X12408158Y-10985393D02*
X12408158Y-11023489D01*
X12408158Y-11023489D02*
X12417682Y-11042536D01*
X12417682Y-11042536D02*
X12427206Y-11052060D01*
X12427206Y-11052060D02*
X12446253Y-11061584D01*
X12446253Y-11061584D02*
X12484348Y-11061584D01*
X12484348Y-11061584D02*
X12503396Y-11052060D01*
X12503396Y-11052060D02*
X12512920Y-11042536D01*
X12512920Y-11042536D02*
X12522444Y-11023489D01*
X12522444Y-11023489D02*
X12522444Y-10985393D01*
X12522444Y-10985393D02*
X12512920Y-10966346D01*
X12512920Y-10966346D02*
X12503396Y-10956822D01*
X12503396Y-10956822D02*
X12484348Y-10947298D01*
X12598634Y-10861584D02*
X12598634Y-10899679D01*
X12674825Y-10861584D02*
X12674825Y-10899679D01*
X12970063Y-11137774D02*
X12960539Y-11128250D01*
X12960539Y-11128250D02*
X12941491Y-11099679D01*
X12941491Y-11099679D02*
X12931968Y-11080631D01*
X12931968Y-11080631D02*
X12922444Y-11052060D01*
X12922444Y-11052060D02*
X12912920Y-11004441D01*
X12912920Y-11004441D02*
X12912920Y-10966346D01*
X12912920Y-10966346D02*
X12922444Y-10918727D01*
X12922444Y-10918727D02*
X12931968Y-10890155D01*
X12931968Y-10890155D02*
X12941491Y-10871108D01*
X12941491Y-10871108D02*
X12960539Y-10842536D01*
X12960539Y-10842536D02*
X12970063Y-10833012D01*
X13131968Y-10928250D02*
X13131968Y-11061584D01*
X13084348Y-10852060D02*
X13036729Y-10994917D01*
X13036729Y-10994917D02*
X13160539Y-10994917D01*
X13389110Y-11061584D02*
X13389110Y-10861584D01*
X13474825Y-11061584D02*
X13474825Y-10956822D01*
X13474825Y-10956822D02*
X13465301Y-10937774D01*
X13465301Y-10937774D02*
X13446253Y-10928250D01*
X13446253Y-10928250D02*
X13417682Y-10928250D01*
X13417682Y-10928250D02*
X13398634Y-10937774D01*
X13398634Y-10937774D02*
X13389110Y-10947298D01*
X13598634Y-11061584D02*
X13579587Y-11052060D01*
X13579587Y-11052060D02*
X13570063Y-11042536D01*
X13570063Y-11042536D02*
X13560539Y-11023489D01*
X13560539Y-11023489D02*
X13560539Y-10966346D01*
X13560539Y-10966346D02*
X13570063Y-10947298D01*
X13570063Y-10947298D02*
X13579587Y-10937774D01*
X13579587Y-10937774D02*
X13598634Y-10928250D01*
X13598634Y-10928250D02*
X13627206Y-10928250D01*
X13627206Y-10928250D02*
X13646253Y-10937774D01*
X13646253Y-10937774D02*
X13655777Y-10947298D01*
X13655777Y-10947298D02*
X13665301Y-10966346D01*
X13665301Y-10966346D02*
X13665301Y-11023489D01*
X13665301Y-11023489D02*
X13655777Y-11042536D01*
X13655777Y-11042536D02*
X13646253Y-11052060D01*
X13646253Y-11052060D02*
X13627206Y-11061584D01*
X13627206Y-11061584D02*
X13598634Y-11061584D01*
X13779587Y-11061584D02*
X13760539Y-11052060D01*
X13760539Y-11052060D02*
X13751015Y-11033012D01*
X13751015Y-11033012D02*
X13751015Y-10861584D01*
X13931968Y-11052060D02*
X13912920Y-11061584D01*
X13912920Y-11061584D02*
X13874825Y-11061584D01*
X13874825Y-11061584D02*
X13855777Y-11052060D01*
X13855777Y-11052060D02*
X13846253Y-11033012D01*
X13846253Y-11033012D02*
X13846253Y-10956822D01*
X13846253Y-10956822D02*
X13855777Y-10937774D01*
X13855777Y-10937774D02*
X13874825Y-10928250D01*
X13874825Y-10928250D02*
X13912920Y-10928250D01*
X13912920Y-10928250D02*
X13931968Y-10937774D01*
X13931968Y-10937774D02*
X13941491Y-10956822D01*
X13941491Y-10956822D02*
X13941491Y-10975870D01*
X13941491Y-10975870D02*
X13846253Y-10994917D01*
X14017682Y-11052060D02*
X14036730Y-11061584D01*
X14036730Y-11061584D02*
X14074825Y-11061584D01*
X14074825Y-11061584D02*
X14093872Y-11052060D01*
X14093872Y-11052060D02*
X14103396Y-11033012D01*
X14103396Y-11033012D02*
X14103396Y-11023489D01*
X14103396Y-11023489D02*
X14093872Y-11004441D01*
X14093872Y-11004441D02*
X14074825Y-10994917D01*
X14074825Y-10994917D02*
X14046253Y-10994917D01*
X14046253Y-10994917D02*
X14027206Y-10985393D01*
X14027206Y-10985393D02*
X14017682Y-10966346D01*
X14017682Y-10966346D02*
X14017682Y-10956822D01*
X14017682Y-10956822D02*
X14027206Y-10937774D01*
X14027206Y-10937774D02*
X14046253Y-10928250D01*
X14046253Y-10928250D02*
X14074825Y-10928250D01*
X14074825Y-10928250D02*
X14093872Y-10937774D01*
X14170063Y-11137774D02*
X14179587Y-11128250D01*
X14179587Y-11128250D02*
X14198634Y-11099679D01*
X14198634Y-11099679D02*
X14208158Y-11080631D01*
X14208158Y-11080631D02*
X14217682Y-11052060D01*
X14217682Y-11052060D02*
X14227206Y-11004441D01*
X14227206Y-11004441D02*
X14227206Y-10966346D01*
X14227206Y-10966346D02*
X14217682Y-10918727D01*
X14217682Y-10918727D02*
X14208158Y-10890155D01*
X14208158Y-10890155D02*
X14198634Y-10871108D01*
X14198634Y-10871108D02*
X14179587Y-10842536D01*
X14179587Y-10842536D02*
X14170063Y-10833012D01*
X14531968Y-11137774D02*
X14522444Y-11128250D01*
X14522444Y-11128250D02*
X14503396Y-11099679D01*
X14503396Y-11099679D02*
X14493872Y-11080631D01*
X14493872Y-11080631D02*
X14484349Y-11052060D01*
X14484349Y-11052060D02*
X14474825Y-11004441D01*
X14474825Y-11004441D02*
X14474825Y-10966346D01*
X14474825Y-10966346D02*
X14484349Y-10918727D01*
X14484349Y-10918727D02*
X14493872Y-10890155D01*
X14493872Y-10890155D02*
X14503396Y-10871108D01*
X14503396Y-10871108D02*
X14522444Y-10842536D01*
X14522444Y-10842536D02*
X14531968Y-10833012D01*
X14608158Y-10928250D02*
X14608158Y-11061584D01*
X14608158Y-10947298D02*
X14617682Y-10937774D01*
X14617682Y-10937774D02*
X14636730Y-10928250D01*
X14636730Y-10928250D02*
X14665301Y-10928250D01*
X14665301Y-10928250D02*
X14684349Y-10937774D01*
X14684349Y-10937774D02*
X14693872Y-10956822D01*
X14693872Y-10956822D02*
X14693872Y-11061584D01*
X14817682Y-11061584D02*
X14798634Y-11052060D01*
X14798634Y-11052060D02*
X14789111Y-11042536D01*
X14789111Y-11042536D02*
X14779587Y-11023489D01*
X14779587Y-11023489D02*
X14779587Y-10966346D01*
X14779587Y-10966346D02*
X14789111Y-10947298D01*
X14789111Y-10947298D02*
X14798634Y-10937774D01*
X14798634Y-10937774D02*
X14817682Y-10928250D01*
X14817682Y-10928250D02*
X14846253Y-10928250D01*
X14846253Y-10928250D02*
X14865301Y-10937774D01*
X14865301Y-10937774D02*
X14874825Y-10947298D01*
X14874825Y-10947298D02*
X14884349Y-10966346D01*
X14884349Y-10966346D02*
X14884349Y-11023489D01*
X14884349Y-11023489D02*
X14874825Y-11042536D01*
X14874825Y-11042536D02*
X14865301Y-11052060D01*
X14865301Y-11052060D02*
X14846253Y-11061584D01*
X14846253Y-11061584D02*
X14817682Y-11061584D01*
X14941492Y-10928250D02*
X15017682Y-10928250D01*
X14970063Y-10861584D02*
X14970063Y-11033012D01*
X14970063Y-11033012D02*
X14979587Y-11052060D01*
X14979587Y-11052060D02*
X14998634Y-11061584D01*
X14998634Y-11061584D02*
X15017682Y-11061584D01*
X15236730Y-10928250D02*
X15236730Y-11128250D01*
X15236730Y-10937774D02*
X15255777Y-10928250D01*
X15255777Y-10928250D02*
X15293873Y-10928250D01*
X15293873Y-10928250D02*
X15312920Y-10937774D01*
X15312920Y-10937774D02*
X15322444Y-10947298D01*
X15322444Y-10947298D02*
X15331968Y-10966346D01*
X15331968Y-10966346D02*
X15331968Y-11023489D01*
X15331968Y-11023489D02*
X15322444Y-11042536D01*
X15322444Y-11042536D02*
X15312920Y-11052060D01*
X15312920Y-11052060D02*
X15293873Y-11061584D01*
X15293873Y-11061584D02*
X15255777Y-11061584D01*
X15255777Y-11061584D02*
X15236730Y-11052060D01*
X15446253Y-11061584D02*
X15427206Y-11052060D01*
X15427206Y-11052060D02*
X15417682Y-11033012D01*
X15417682Y-11033012D02*
X15417682Y-10861584D01*
X15608158Y-11061584D02*
X15608158Y-10956822D01*
X15608158Y-10956822D02*
X15598634Y-10937774D01*
X15598634Y-10937774D02*
X15579587Y-10928250D01*
X15579587Y-10928250D02*
X15541492Y-10928250D01*
X15541492Y-10928250D02*
X15522444Y-10937774D01*
X15608158Y-11052060D02*
X15589111Y-11061584D01*
X15589111Y-11061584D02*
X15541492Y-11061584D01*
X15541492Y-11061584D02*
X15522444Y-11052060D01*
X15522444Y-11052060D02*
X15512920Y-11033012D01*
X15512920Y-11033012D02*
X15512920Y-11013965D01*
X15512920Y-11013965D02*
X15522444Y-10994917D01*
X15522444Y-10994917D02*
X15541492Y-10985393D01*
X15541492Y-10985393D02*
X15589111Y-10985393D01*
X15589111Y-10985393D02*
X15608158Y-10975870D01*
X15674825Y-10928250D02*
X15751015Y-10928250D01*
X15703396Y-10861584D02*
X15703396Y-11033012D01*
X15703396Y-11033012D02*
X15712920Y-11052060D01*
X15712920Y-11052060D02*
X15731968Y-11061584D01*
X15731968Y-11061584D02*
X15751015Y-11061584D01*
X15893873Y-11052060D02*
X15874825Y-11061584D01*
X15874825Y-11061584D02*
X15836730Y-11061584D01*
X15836730Y-11061584D02*
X15817682Y-11052060D01*
X15817682Y-11052060D02*
X15808158Y-11033012D01*
X15808158Y-11033012D02*
X15808158Y-10956822D01*
X15808158Y-10956822D02*
X15817682Y-10937774D01*
X15817682Y-10937774D02*
X15836730Y-10928250D01*
X15836730Y-10928250D02*
X15874825Y-10928250D01*
X15874825Y-10928250D02*
X15893873Y-10937774D01*
X15893873Y-10937774D02*
X15903396Y-10956822D01*
X15903396Y-10956822D02*
X15903396Y-10975870D01*
X15903396Y-10975870D02*
X15808158Y-10994917D01*
X16074825Y-11061584D02*
X16074825Y-10861584D01*
X16074825Y-11052060D02*
X16055777Y-11061584D01*
X16055777Y-11061584D02*
X16017682Y-11061584D01*
X16017682Y-11061584D02*
X15998634Y-11052060D01*
X15998634Y-11052060D02*
X15989111Y-11042536D01*
X15989111Y-11042536D02*
X15979587Y-11023489D01*
X15979587Y-11023489D02*
X15979587Y-10966346D01*
X15979587Y-10966346D02*
X15989111Y-10947298D01*
X15989111Y-10947298D02*
X15998634Y-10937774D01*
X15998634Y-10937774D02*
X16017682Y-10928250D01*
X16017682Y-10928250D02*
X16055777Y-10928250D01*
X16055777Y-10928250D02*
X16074825Y-10937774D01*
X16151015Y-11137774D02*
X16160539Y-11128250D01*
X16160539Y-11128250D02*
X16179587Y-11099679D01*
X16179587Y-11099679D02*
X16189111Y-11080631D01*
X16189111Y-11080631D02*
X16198634Y-11052060D01*
X16198634Y-11052060D02*
X16208158Y-11004441D01*
X16208158Y-11004441D02*
X16208158Y-10966346D01*
X16208158Y-10966346D02*
X16198634Y-10918727D01*
X16198634Y-10918727D02*
X16189111Y-10890155D01*
X16189111Y-10890155D02*
X16179587Y-10871108D01*
X16179587Y-10871108D02*
X16160539Y-10842536D01*
X16160539Y-10842536D02*
X16151015Y-10833012D01*
M02*
