G04 #@! TF.GenerationSoftware,KiCad,Pcbnew,7.0.7-7.0.7~ubuntu22.04.1*
G04 #@! TF.CreationDate,2023-09-07T23:45:27+05:30*
G04 #@! TF.ProjectId,SDC_Schematic,5344435f-5363-4686-956d-617469632e6b,rev?*
G04 #@! TF.SameCoordinates,Original*
G04 #@! TF.FileFunction,Legend,Top*
G04 #@! TF.FilePolarity,Positive*
%FSLAX46Y46*%
G04 Gerber Fmt 4.6, Leading zero omitted, Abs format (unit mm)*
G04 Created by KiCad (PCBNEW 7.0.7-7.0.7~ubuntu22.04.1) date 2023-09-07 23:45:27*
%MOMM*%
%LPD*%
G01*
G04 APERTURE LIST*
G04 Aperture macros list*
%AMRoundRect*
0 Rectangle with rounded corners*
0 $1 Rounding radius*
0 $2 $3 $4 $5 $6 $7 $8 $9 X,Y pos of 4 corners*
0 Add a 4 corners polygon primitive as box body*
4,1,4,$2,$3,$4,$5,$6,$7,$8,$9,$2,$3,0*
0 Add four circle primitives for the rounded corners*
1,1,$1+$1,$2,$3*
1,1,$1+$1,$4,$5*
1,1,$1+$1,$6,$7*
1,1,$1+$1,$8,$9*
0 Add four rect primitives between the rounded corners*
20,1,$1+$1,$2,$3,$4,$5,0*
20,1,$1+$1,$4,$5,$6,$7,0*
20,1,$1+$1,$6,$7,$8,$9,0*
20,1,$1+$1,$8,$9,$2,$3,0*%
G04 Aperture macros list end*
%ADD10C,0.180000*%
%ADD11C,0.187500*%
%ADD12C,0.160000*%
%ADD13C,0.120000*%
%ADD14C,0.150000*%
%ADD15C,0.100000*%
%ADD16C,1.600000*%
%ADD17R,1.600000X1.600000*%
%ADD18O,1.600000X1.600000*%
%ADD19C,3.500000*%
%ADD20R,1.700000X1.700000*%
%ADD21O,1.700000X1.700000*%
%ADD22R,1.524000X1.524000*%
%ADD23C,1.500000*%
%ADD24C,2.000000*%
%ADD25R,1.980000X3.960000*%
%ADD26O,1.980000X3.960000*%
%ADD27R,3.500000X3.500000*%
%ADD28RoundRect,0.750000X0.750000X1.000000X-0.750000X1.000000X-0.750000X-1.000000X0.750000X-1.000000X0*%
%ADD29RoundRect,0.875000X0.875000X0.875000X-0.875000X0.875000X-0.875000X-0.875000X0.875000X-0.875000X0*%
G04 APERTURE END LIST*
D10*
X160178497Y-50038721D02*
X160107068Y-50181579D01*
X160107068Y-50181579D02*
X160107068Y-50395864D01*
X160107068Y-50395864D02*
X160178497Y-50610150D01*
X160178497Y-50610150D02*
X160321354Y-50753007D01*
X160321354Y-50753007D02*
X160464211Y-50824436D01*
X160464211Y-50824436D02*
X160749925Y-50895864D01*
X160749925Y-50895864D02*
X160964211Y-50895864D01*
X160964211Y-50895864D02*
X161249925Y-50824436D01*
X161249925Y-50824436D02*
X161392782Y-50753007D01*
X161392782Y-50753007D02*
X161535640Y-50610150D01*
X161535640Y-50610150D02*
X161607068Y-50395864D01*
X161607068Y-50395864D02*
X161607068Y-50253007D01*
X161607068Y-50253007D02*
X161535640Y-50038721D01*
X161535640Y-50038721D02*
X161464211Y-49967293D01*
X161464211Y-49967293D02*
X160964211Y-49967293D01*
X160964211Y-49967293D02*
X160964211Y-50253007D01*
X161607068Y-49324436D02*
X160107068Y-49324436D01*
X160107068Y-49324436D02*
X161607068Y-48467293D01*
X161607068Y-48467293D02*
X160107068Y-48467293D01*
X161607068Y-47753007D02*
X160107068Y-47753007D01*
X160107068Y-47753007D02*
X160107068Y-47395864D01*
X160107068Y-47395864D02*
X160178497Y-47181578D01*
X160178497Y-47181578D02*
X160321354Y-47038721D01*
X160321354Y-47038721D02*
X160464211Y-46967292D01*
X160464211Y-46967292D02*
X160749925Y-46895864D01*
X160749925Y-46895864D02*
X160964211Y-46895864D01*
X160964211Y-46895864D02*
X161249925Y-46967292D01*
X161249925Y-46967292D02*
X161392782Y-47038721D01*
X161392782Y-47038721D02*
X161535640Y-47181578D01*
X161535640Y-47181578D02*
X161607068Y-47395864D01*
X161607068Y-47395864D02*
X161607068Y-47753007D01*
X95575563Y-58235640D02*
X96718421Y-58235640D01*
X96146992Y-58807068D02*
X96146992Y-57664211D01*
X98146992Y-57307068D02*
X97432706Y-57307068D01*
X97432706Y-57307068D02*
X97361278Y-58021354D01*
X97361278Y-58021354D02*
X97432706Y-57949925D01*
X97432706Y-57949925D02*
X97575564Y-57878497D01*
X97575564Y-57878497D02*
X97932706Y-57878497D01*
X97932706Y-57878497D02*
X98075564Y-57949925D01*
X98075564Y-57949925D02*
X98146992Y-58021354D01*
X98146992Y-58021354D02*
X98218421Y-58164211D01*
X98218421Y-58164211D02*
X98218421Y-58521354D01*
X98218421Y-58521354D02*
X98146992Y-58664211D01*
X98146992Y-58664211D02*
X98075564Y-58735640D01*
X98075564Y-58735640D02*
X97932706Y-58807068D01*
X97932706Y-58807068D02*
X97575564Y-58807068D01*
X97575564Y-58807068D02*
X97432706Y-58735640D01*
X97432706Y-58735640D02*
X97361278Y-58664211D01*
X98646992Y-57307068D02*
X99146992Y-58807068D01*
X99146992Y-58807068D02*
X99646992Y-57307068D01*
X98075563Y-79607068D02*
X98075563Y-78107068D01*
X98075563Y-78107068D02*
X98575563Y-79178497D01*
X98575563Y-79178497D02*
X99075563Y-78107068D01*
X99075563Y-78107068D02*
X99075563Y-79607068D01*
X99789849Y-79607068D02*
X99789849Y-78107068D01*
X100432707Y-79535640D02*
X100646993Y-79607068D01*
X100646993Y-79607068D02*
X101004135Y-79607068D01*
X101004135Y-79607068D02*
X101146993Y-79535640D01*
X101146993Y-79535640D02*
X101218421Y-79464211D01*
X101218421Y-79464211D02*
X101289850Y-79321354D01*
X101289850Y-79321354D02*
X101289850Y-79178497D01*
X101289850Y-79178497D02*
X101218421Y-79035640D01*
X101218421Y-79035640D02*
X101146993Y-78964211D01*
X101146993Y-78964211D02*
X101004135Y-78892782D01*
X101004135Y-78892782D02*
X100718421Y-78821354D01*
X100718421Y-78821354D02*
X100575564Y-78749925D01*
X100575564Y-78749925D02*
X100504135Y-78678497D01*
X100504135Y-78678497D02*
X100432707Y-78535640D01*
X100432707Y-78535640D02*
X100432707Y-78392782D01*
X100432707Y-78392782D02*
X100504135Y-78249925D01*
X100504135Y-78249925D02*
X100575564Y-78178497D01*
X100575564Y-78178497D02*
X100718421Y-78107068D01*
X100718421Y-78107068D02*
X101075564Y-78107068D01*
X101075564Y-78107068D02*
X101289850Y-78178497D01*
X102218421Y-78107068D02*
X102504135Y-78107068D01*
X102504135Y-78107068D02*
X102646992Y-78178497D01*
X102646992Y-78178497D02*
X102789849Y-78321354D01*
X102789849Y-78321354D02*
X102861278Y-78607068D01*
X102861278Y-78607068D02*
X102861278Y-79107068D01*
X102861278Y-79107068D02*
X102789849Y-79392782D01*
X102789849Y-79392782D02*
X102646992Y-79535640D01*
X102646992Y-79535640D02*
X102504135Y-79607068D01*
X102504135Y-79607068D02*
X102218421Y-79607068D01*
X102218421Y-79607068D02*
X102075564Y-79535640D01*
X102075564Y-79535640D02*
X101932706Y-79392782D01*
X101932706Y-79392782D02*
X101861278Y-79107068D01*
X101861278Y-79107068D02*
X101861278Y-78607068D01*
X101861278Y-78607068D02*
X101932706Y-78321354D01*
X101932706Y-78321354D02*
X102075564Y-78178497D01*
X102075564Y-78178497D02*
X102218421Y-78107068D01*
X121461278Y-47178497D02*
X121318421Y-47107068D01*
X121318421Y-47107068D02*
X121104135Y-47107068D01*
X121104135Y-47107068D02*
X120889849Y-47178497D01*
X120889849Y-47178497D02*
X120746992Y-47321354D01*
X120746992Y-47321354D02*
X120675563Y-47464211D01*
X120675563Y-47464211D02*
X120604135Y-47749925D01*
X120604135Y-47749925D02*
X120604135Y-47964211D01*
X120604135Y-47964211D02*
X120675563Y-48249925D01*
X120675563Y-48249925D02*
X120746992Y-48392782D01*
X120746992Y-48392782D02*
X120889849Y-48535640D01*
X120889849Y-48535640D02*
X121104135Y-48607068D01*
X121104135Y-48607068D02*
X121246992Y-48607068D01*
X121246992Y-48607068D02*
X121461278Y-48535640D01*
X121461278Y-48535640D02*
X121532706Y-48464211D01*
X121532706Y-48464211D02*
X121532706Y-47964211D01*
X121532706Y-47964211D02*
X121246992Y-47964211D01*
X122175563Y-48607068D02*
X122175563Y-47107068D01*
X122175563Y-47107068D02*
X123032706Y-48607068D01*
X123032706Y-48607068D02*
X123032706Y-47107068D01*
X123746992Y-48607068D02*
X123746992Y-47107068D01*
X123746992Y-47107068D02*
X124104135Y-47107068D01*
X124104135Y-47107068D02*
X124318421Y-47178497D01*
X124318421Y-47178497D02*
X124461278Y-47321354D01*
X124461278Y-47321354D02*
X124532707Y-47464211D01*
X124532707Y-47464211D02*
X124604135Y-47749925D01*
X124604135Y-47749925D02*
X124604135Y-47964211D01*
X124604135Y-47964211D02*
X124532707Y-48249925D01*
X124532707Y-48249925D02*
X124461278Y-48392782D01*
X124461278Y-48392782D02*
X124318421Y-48535640D01*
X124318421Y-48535640D02*
X124104135Y-48607068D01*
X124104135Y-48607068D02*
X123746992Y-48607068D01*
X172221354Y-94024436D02*
X172221354Y-93524436D01*
X173007068Y-93310150D02*
X173007068Y-94024436D01*
X173007068Y-94024436D02*
X171507068Y-94024436D01*
X171507068Y-94024436D02*
X171507068Y-93310150D01*
X172864211Y-91810150D02*
X172935640Y-91881578D01*
X172935640Y-91881578D02*
X173007068Y-92095864D01*
X173007068Y-92095864D02*
X173007068Y-92238721D01*
X173007068Y-92238721D02*
X172935640Y-92453007D01*
X172935640Y-92453007D02*
X172792782Y-92595864D01*
X172792782Y-92595864D02*
X172649925Y-92667293D01*
X172649925Y-92667293D02*
X172364211Y-92738721D01*
X172364211Y-92738721D02*
X172149925Y-92738721D01*
X172149925Y-92738721D02*
X171864211Y-92667293D01*
X171864211Y-92667293D02*
X171721354Y-92595864D01*
X171721354Y-92595864D02*
X171578497Y-92453007D01*
X171578497Y-92453007D02*
X171507068Y-92238721D01*
X171507068Y-92238721D02*
X171507068Y-92095864D01*
X171507068Y-92095864D02*
X171578497Y-91881578D01*
X171578497Y-91881578D02*
X171649925Y-91810150D01*
X173007068Y-91167293D02*
X171507068Y-91167293D01*
X172221354Y-91167293D02*
X172221354Y-90310150D01*
X173007068Y-90310150D02*
X171507068Y-90310150D01*
X171507068Y-89310149D02*
X171507068Y-89024435D01*
X171507068Y-89024435D02*
X171578497Y-88881578D01*
X171578497Y-88881578D02*
X171721354Y-88738721D01*
X171721354Y-88738721D02*
X172007068Y-88667292D01*
X172007068Y-88667292D02*
X172507068Y-88667292D01*
X172507068Y-88667292D02*
X172792782Y-88738721D01*
X172792782Y-88738721D02*
X172935640Y-88881578D01*
X172935640Y-88881578D02*
X173007068Y-89024435D01*
X173007068Y-89024435D02*
X173007068Y-89310149D01*
X173007068Y-89310149D02*
X172935640Y-89453007D01*
X172935640Y-89453007D02*
X172792782Y-89595864D01*
X172792782Y-89595864D02*
X172507068Y-89667292D01*
X172507068Y-89667292D02*
X172007068Y-89667292D01*
X172007068Y-89667292D02*
X171721354Y-89595864D01*
X171721354Y-89595864D02*
X171578497Y-89453007D01*
X171578497Y-89453007D02*
X171507068Y-89310149D01*
X173108897Y-46993449D02*
X172985087Y-46931544D01*
X172985087Y-46931544D02*
X172799373Y-46931544D01*
X172799373Y-46931544D02*
X172613659Y-46993449D01*
X172613659Y-46993449D02*
X172489849Y-47117259D01*
X172489849Y-47117259D02*
X172427944Y-47241068D01*
X172427944Y-47241068D02*
X172366040Y-47488687D01*
X172366040Y-47488687D02*
X172366040Y-47674401D01*
X172366040Y-47674401D02*
X172427944Y-47922020D01*
X172427944Y-47922020D02*
X172489849Y-48045830D01*
X172489849Y-48045830D02*
X172613659Y-48169640D01*
X172613659Y-48169640D02*
X172799373Y-48231544D01*
X172799373Y-48231544D02*
X172923182Y-48231544D01*
X172923182Y-48231544D02*
X173108897Y-48169640D01*
X173108897Y-48169640D02*
X173170801Y-48107735D01*
X173170801Y-48107735D02*
X173170801Y-47674401D01*
X173170801Y-47674401D02*
X172923182Y-47674401D01*
X173727944Y-48231544D02*
X173727944Y-46931544D01*
X173727944Y-46931544D02*
X174470801Y-48231544D01*
X174470801Y-48231544D02*
X174470801Y-46931544D01*
X175089849Y-48231544D02*
X175089849Y-46931544D01*
X175089849Y-46931544D02*
X175399373Y-46931544D01*
X175399373Y-46931544D02*
X175585087Y-46993449D01*
X175585087Y-46993449D02*
X175708897Y-47117259D01*
X175708897Y-47117259D02*
X175770802Y-47241068D01*
X175770802Y-47241068D02*
X175832706Y-47488687D01*
X175832706Y-47488687D02*
X175832706Y-47674401D01*
X175832706Y-47674401D02*
X175770802Y-47922020D01*
X175770802Y-47922020D02*
X175708897Y-48045830D01*
X175708897Y-48045830D02*
X175585087Y-48169640D01*
X175585087Y-48169640D02*
X175399373Y-48231544D01*
X175399373Y-48231544D02*
X175089849Y-48231544D01*
X97161278Y-54978497D02*
X97018421Y-54907068D01*
X97018421Y-54907068D02*
X96804135Y-54907068D01*
X96804135Y-54907068D02*
X96589849Y-54978497D01*
X96589849Y-54978497D02*
X96446992Y-55121354D01*
X96446992Y-55121354D02*
X96375563Y-55264211D01*
X96375563Y-55264211D02*
X96304135Y-55549925D01*
X96304135Y-55549925D02*
X96304135Y-55764211D01*
X96304135Y-55764211D02*
X96375563Y-56049925D01*
X96375563Y-56049925D02*
X96446992Y-56192782D01*
X96446992Y-56192782D02*
X96589849Y-56335640D01*
X96589849Y-56335640D02*
X96804135Y-56407068D01*
X96804135Y-56407068D02*
X96946992Y-56407068D01*
X96946992Y-56407068D02*
X97161278Y-56335640D01*
X97161278Y-56335640D02*
X97232706Y-56264211D01*
X97232706Y-56264211D02*
X97232706Y-55764211D01*
X97232706Y-55764211D02*
X96946992Y-55764211D01*
X97875563Y-56407068D02*
X97875563Y-54907068D01*
X97875563Y-54907068D02*
X98732706Y-56407068D01*
X98732706Y-56407068D02*
X98732706Y-54907068D01*
X99446992Y-56407068D02*
X99446992Y-54907068D01*
X99446992Y-54907068D02*
X99804135Y-54907068D01*
X99804135Y-54907068D02*
X100018421Y-54978497D01*
X100018421Y-54978497D02*
X100161278Y-55121354D01*
X100161278Y-55121354D02*
X100232707Y-55264211D01*
X100232707Y-55264211D02*
X100304135Y-55549925D01*
X100304135Y-55549925D02*
X100304135Y-55764211D01*
X100304135Y-55764211D02*
X100232707Y-56049925D01*
X100232707Y-56049925D02*
X100161278Y-56192782D01*
X100161278Y-56192782D02*
X100018421Y-56335640D01*
X100018421Y-56335640D02*
X99804135Y-56407068D01*
X99804135Y-56407068D02*
X99446992Y-56407068D01*
X152507068Y-49038721D02*
X152507068Y-48181579D01*
X154007068Y-48610150D02*
X152507068Y-48610150D01*
X152507068Y-47824436D02*
X154007068Y-46824436D01*
X152507068Y-46824436D02*
X154007068Y-47824436D01*
X167435640Y-92824436D02*
X167435640Y-91681579D01*
X168007068Y-92253007D02*
X166864211Y-92253007D01*
X166507068Y-90253007D02*
X166507068Y-90967293D01*
X166507068Y-90967293D02*
X167221354Y-91038721D01*
X167221354Y-91038721D02*
X167149925Y-90967293D01*
X167149925Y-90967293D02*
X167078497Y-90824436D01*
X167078497Y-90824436D02*
X167078497Y-90467293D01*
X167078497Y-90467293D02*
X167149925Y-90324436D01*
X167149925Y-90324436D02*
X167221354Y-90253007D01*
X167221354Y-90253007D02*
X167364211Y-90181578D01*
X167364211Y-90181578D02*
X167721354Y-90181578D01*
X167721354Y-90181578D02*
X167864211Y-90253007D01*
X167864211Y-90253007D02*
X167935640Y-90324436D01*
X167935640Y-90324436D02*
X168007068Y-90467293D01*
X168007068Y-90467293D02*
X168007068Y-90824436D01*
X168007068Y-90824436D02*
X167935640Y-90967293D01*
X167935640Y-90967293D02*
X167864211Y-91038721D01*
X166507068Y-89753007D02*
X168007068Y-89253007D01*
X168007068Y-89253007D02*
X166507068Y-88753007D01*
X157075563Y-89107068D02*
X157075563Y-87607068D01*
X157075563Y-87607068D02*
X157575563Y-88678497D01*
X157575563Y-88678497D02*
X158075563Y-87607068D01*
X158075563Y-87607068D02*
X158075563Y-89107068D01*
X158718421Y-87749925D02*
X158789849Y-87678497D01*
X158789849Y-87678497D02*
X158932707Y-87607068D01*
X158932707Y-87607068D02*
X159289849Y-87607068D01*
X159289849Y-87607068D02*
X159432707Y-87678497D01*
X159432707Y-87678497D02*
X159504135Y-87749925D01*
X159504135Y-87749925D02*
X159575564Y-87892782D01*
X159575564Y-87892782D02*
X159575564Y-88035640D01*
X159575564Y-88035640D02*
X159504135Y-88249925D01*
X159504135Y-88249925D02*
X158646992Y-89107068D01*
X158646992Y-89107068D02*
X159575564Y-89107068D01*
X180307068Y-47438721D02*
X181807068Y-46938721D01*
X181807068Y-46938721D02*
X180307068Y-46438721D01*
X181664211Y-45081579D02*
X181735640Y-45153007D01*
X181735640Y-45153007D02*
X181807068Y-45367293D01*
X181807068Y-45367293D02*
X181807068Y-45510150D01*
X181807068Y-45510150D02*
X181735640Y-45724436D01*
X181735640Y-45724436D02*
X181592782Y-45867293D01*
X181592782Y-45867293D02*
X181449925Y-45938722D01*
X181449925Y-45938722D02*
X181164211Y-46010150D01*
X181164211Y-46010150D02*
X180949925Y-46010150D01*
X180949925Y-46010150D02*
X180664211Y-45938722D01*
X180664211Y-45938722D02*
X180521354Y-45867293D01*
X180521354Y-45867293D02*
X180378497Y-45724436D01*
X180378497Y-45724436D02*
X180307068Y-45510150D01*
X180307068Y-45510150D02*
X180307068Y-45367293D01*
X180307068Y-45367293D02*
X180378497Y-45153007D01*
X180378497Y-45153007D02*
X180449925Y-45081579D01*
X181664211Y-43581579D02*
X181735640Y-43653007D01*
X181735640Y-43653007D02*
X181807068Y-43867293D01*
X181807068Y-43867293D02*
X181807068Y-44010150D01*
X181807068Y-44010150D02*
X181735640Y-44224436D01*
X181735640Y-44224436D02*
X181592782Y-44367293D01*
X181592782Y-44367293D02*
X181449925Y-44438722D01*
X181449925Y-44438722D02*
X181164211Y-44510150D01*
X181164211Y-44510150D02*
X180949925Y-44510150D01*
X180949925Y-44510150D02*
X180664211Y-44438722D01*
X180664211Y-44438722D02*
X180521354Y-44367293D01*
X180521354Y-44367293D02*
X180378497Y-44224436D01*
X180378497Y-44224436D02*
X180307068Y-44010150D01*
X180307068Y-44010150D02*
X180307068Y-43867293D01*
X180307068Y-43867293D02*
X180378497Y-43653007D01*
X180378497Y-43653007D02*
X180449925Y-43581579D01*
X127407068Y-48724436D02*
X125907068Y-48724436D01*
X127407068Y-48010150D02*
X125907068Y-48010150D01*
X125907068Y-48010150D02*
X127407068Y-47153007D01*
X127407068Y-47153007D02*
X125907068Y-47153007D01*
X100004135Y-67835640D02*
X100218421Y-67907068D01*
X100218421Y-67907068D02*
X100575563Y-67907068D01*
X100575563Y-67907068D02*
X100718421Y-67835640D01*
X100718421Y-67835640D02*
X100789849Y-67764211D01*
X100789849Y-67764211D02*
X100861278Y-67621354D01*
X100861278Y-67621354D02*
X100861278Y-67478497D01*
X100861278Y-67478497D02*
X100789849Y-67335640D01*
X100789849Y-67335640D02*
X100718421Y-67264211D01*
X100718421Y-67264211D02*
X100575563Y-67192782D01*
X100575563Y-67192782D02*
X100289849Y-67121354D01*
X100289849Y-67121354D02*
X100146992Y-67049925D01*
X100146992Y-67049925D02*
X100075563Y-66978497D01*
X100075563Y-66978497D02*
X100004135Y-66835640D01*
X100004135Y-66835640D02*
X100004135Y-66692782D01*
X100004135Y-66692782D02*
X100075563Y-66549925D01*
X100075563Y-66549925D02*
X100146992Y-66478497D01*
X100146992Y-66478497D02*
X100289849Y-66407068D01*
X100289849Y-66407068D02*
X100646992Y-66407068D01*
X100646992Y-66407068D02*
X100861278Y-66478497D01*
X101504134Y-67121354D02*
X102004134Y-67121354D01*
X102218420Y-67907068D02*
X101504134Y-67907068D01*
X101504134Y-67907068D02*
X101504134Y-66407068D01*
X101504134Y-66407068D02*
X102218420Y-66407068D01*
X103718420Y-67907068D02*
X103218420Y-67192782D01*
X102861277Y-67907068D02*
X102861277Y-66407068D01*
X102861277Y-66407068D02*
X103432706Y-66407068D01*
X103432706Y-66407068D02*
X103575563Y-66478497D01*
X103575563Y-66478497D02*
X103646992Y-66549925D01*
X103646992Y-66549925D02*
X103718420Y-66692782D01*
X103718420Y-66692782D02*
X103718420Y-66907068D01*
X103718420Y-66907068D02*
X103646992Y-67049925D01*
X103646992Y-67049925D02*
X103575563Y-67121354D01*
X103575563Y-67121354D02*
X103432706Y-67192782D01*
X103432706Y-67192782D02*
X102861277Y-67192782D01*
X104146992Y-66407068D02*
X104646992Y-67907068D01*
X104646992Y-67907068D02*
X105146992Y-66407068D01*
X105932706Y-66407068D02*
X106218420Y-66407068D01*
X106218420Y-66407068D02*
X106361277Y-66478497D01*
X106361277Y-66478497D02*
X106504134Y-66621354D01*
X106504134Y-66621354D02*
X106575563Y-66907068D01*
X106575563Y-66907068D02*
X106575563Y-67407068D01*
X106575563Y-67407068D02*
X106504134Y-67692782D01*
X106504134Y-67692782D02*
X106361277Y-67835640D01*
X106361277Y-67835640D02*
X106218420Y-67907068D01*
X106218420Y-67907068D02*
X105932706Y-67907068D01*
X105932706Y-67907068D02*
X105789849Y-67835640D01*
X105789849Y-67835640D02*
X105646991Y-67692782D01*
X105646991Y-67692782D02*
X105575563Y-67407068D01*
X105575563Y-67407068D02*
X105575563Y-66907068D01*
X105575563Y-66907068D02*
X105646991Y-66621354D01*
X105646991Y-66621354D02*
X105789849Y-66478497D01*
X105789849Y-66478497D02*
X105932706Y-66407068D01*
X138607068Y-62767293D02*
X137892782Y-63267293D01*
X138607068Y-63624436D02*
X137107068Y-63624436D01*
X137107068Y-63624436D02*
X137107068Y-63053007D01*
X137107068Y-63053007D02*
X137178497Y-62910150D01*
X137178497Y-62910150D02*
X137249925Y-62838721D01*
X137249925Y-62838721D02*
X137392782Y-62767293D01*
X137392782Y-62767293D02*
X137607068Y-62767293D01*
X137607068Y-62767293D02*
X137749925Y-62838721D01*
X137749925Y-62838721D02*
X137821354Y-62910150D01*
X137821354Y-62910150D02*
X137892782Y-63053007D01*
X137892782Y-63053007D02*
X137892782Y-63624436D01*
X138535640Y-62195864D02*
X138607068Y-61981579D01*
X138607068Y-61981579D02*
X138607068Y-61624436D01*
X138607068Y-61624436D02*
X138535640Y-61481579D01*
X138535640Y-61481579D02*
X138464211Y-61410150D01*
X138464211Y-61410150D02*
X138321354Y-61338721D01*
X138321354Y-61338721D02*
X138178497Y-61338721D01*
X138178497Y-61338721D02*
X138035640Y-61410150D01*
X138035640Y-61410150D02*
X137964211Y-61481579D01*
X137964211Y-61481579D02*
X137892782Y-61624436D01*
X137892782Y-61624436D02*
X137821354Y-61910150D01*
X137821354Y-61910150D02*
X137749925Y-62053007D01*
X137749925Y-62053007D02*
X137678497Y-62124436D01*
X137678497Y-62124436D02*
X137535640Y-62195864D01*
X137535640Y-62195864D02*
X137392782Y-62195864D01*
X137392782Y-62195864D02*
X137249925Y-62124436D01*
X137249925Y-62124436D02*
X137178497Y-62053007D01*
X137178497Y-62053007D02*
X137107068Y-61910150D01*
X137107068Y-61910150D02*
X137107068Y-61553007D01*
X137107068Y-61553007D02*
X137178497Y-61338721D01*
X137107068Y-60910150D02*
X137107068Y-60053008D01*
X138607068Y-60481579D02*
X137107068Y-60481579D01*
X151407068Y-48367293D02*
X150692782Y-48867293D01*
X151407068Y-49224436D02*
X149907068Y-49224436D01*
X149907068Y-49224436D02*
X149907068Y-48653007D01*
X149907068Y-48653007D02*
X149978497Y-48510150D01*
X149978497Y-48510150D02*
X150049925Y-48438721D01*
X150049925Y-48438721D02*
X150192782Y-48367293D01*
X150192782Y-48367293D02*
X150407068Y-48367293D01*
X150407068Y-48367293D02*
X150549925Y-48438721D01*
X150549925Y-48438721D02*
X150621354Y-48510150D01*
X150621354Y-48510150D02*
X150692782Y-48653007D01*
X150692782Y-48653007D02*
X150692782Y-49224436D01*
X149907068Y-47867293D02*
X151407068Y-46867293D01*
X149907068Y-46867293D02*
X151407068Y-47867293D01*
X155935640Y-50924436D02*
X155935640Y-49781579D01*
X156507068Y-50353007D02*
X155364211Y-50353007D01*
X155007068Y-48353007D02*
X155007068Y-49067293D01*
X155007068Y-49067293D02*
X155721354Y-49138721D01*
X155721354Y-49138721D02*
X155649925Y-49067293D01*
X155649925Y-49067293D02*
X155578497Y-48924436D01*
X155578497Y-48924436D02*
X155578497Y-48567293D01*
X155578497Y-48567293D02*
X155649925Y-48424436D01*
X155649925Y-48424436D02*
X155721354Y-48353007D01*
X155721354Y-48353007D02*
X155864211Y-48281578D01*
X155864211Y-48281578D02*
X156221354Y-48281578D01*
X156221354Y-48281578D02*
X156364211Y-48353007D01*
X156364211Y-48353007D02*
X156435640Y-48424436D01*
X156435640Y-48424436D02*
X156507068Y-48567293D01*
X156507068Y-48567293D02*
X156507068Y-48924436D01*
X156507068Y-48924436D02*
X156435640Y-49067293D01*
X156435640Y-49067293D02*
X156364211Y-49138721D01*
X155007068Y-47853007D02*
X156507068Y-47353007D01*
X156507068Y-47353007D02*
X155007068Y-46853007D01*
X148907068Y-50324436D02*
X147407068Y-50324436D01*
X147407068Y-50324436D02*
X147407068Y-49967293D01*
X147407068Y-49967293D02*
X147478497Y-49753007D01*
X147478497Y-49753007D02*
X147621354Y-49610150D01*
X147621354Y-49610150D02*
X147764211Y-49538721D01*
X147764211Y-49538721D02*
X148049925Y-49467293D01*
X148049925Y-49467293D02*
X148264211Y-49467293D01*
X148264211Y-49467293D02*
X148549925Y-49538721D01*
X148549925Y-49538721D02*
X148692782Y-49610150D01*
X148692782Y-49610150D02*
X148835640Y-49753007D01*
X148835640Y-49753007D02*
X148907068Y-49967293D01*
X148907068Y-49967293D02*
X148907068Y-50324436D01*
X147407068Y-49038721D02*
X147407068Y-48181579D01*
X148907068Y-48610150D02*
X147407068Y-48610150D01*
X148907068Y-46824436D02*
X148192782Y-47324436D01*
X148907068Y-47681579D02*
X147407068Y-47681579D01*
X147407068Y-47681579D02*
X147407068Y-47110150D01*
X147407068Y-47110150D02*
X147478497Y-46967293D01*
X147478497Y-46967293D02*
X147549925Y-46895864D01*
X147549925Y-46895864D02*
X147692782Y-46824436D01*
X147692782Y-46824436D02*
X147907068Y-46824436D01*
X147907068Y-46824436D02*
X148049925Y-46895864D01*
X148049925Y-46895864D02*
X148121354Y-46967293D01*
X148121354Y-46967293D02*
X148192782Y-47110150D01*
X148192782Y-47110150D02*
X148192782Y-47681579D01*
X99661278Y-72978497D02*
X99518421Y-72907068D01*
X99518421Y-72907068D02*
X99304135Y-72907068D01*
X99304135Y-72907068D02*
X99089849Y-72978497D01*
X99089849Y-72978497D02*
X98946992Y-73121354D01*
X98946992Y-73121354D02*
X98875563Y-73264211D01*
X98875563Y-73264211D02*
X98804135Y-73549925D01*
X98804135Y-73549925D02*
X98804135Y-73764211D01*
X98804135Y-73764211D02*
X98875563Y-74049925D01*
X98875563Y-74049925D02*
X98946992Y-74192782D01*
X98946992Y-74192782D02*
X99089849Y-74335640D01*
X99089849Y-74335640D02*
X99304135Y-74407068D01*
X99304135Y-74407068D02*
X99446992Y-74407068D01*
X99446992Y-74407068D02*
X99661278Y-74335640D01*
X99661278Y-74335640D02*
X99732706Y-74264211D01*
X99732706Y-74264211D02*
X99732706Y-73764211D01*
X99732706Y-73764211D02*
X99446992Y-73764211D01*
X100375563Y-74407068D02*
X100375563Y-72907068D01*
X100375563Y-72907068D02*
X101232706Y-74407068D01*
X101232706Y-74407068D02*
X101232706Y-72907068D01*
X101946992Y-74407068D02*
X101946992Y-72907068D01*
X101946992Y-72907068D02*
X102304135Y-72907068D01*
X102304135Y-72907068D02*
X102518421Y-72978497D01*
X102518421Y-72978497D02*
X102661278Y-73121354D01*
X102661278Y-73121354D02*
X102732707Y-73264211D01*
X102732707Y-73264211D02*
X102804135Y-73549925D01*
X102804135Y-73549925D02*
X102804135Y-73764211D01*
X102804135Y-73764211D02*
X102732707Y-74049925D01*
X102732707Y-74049925D02*
X102661278Y-74192782D01*
X102661278Y-74192782D02*
X102518421Y-74335640D01*
X102518421Y-74335640D02*
X102304135Y-74407068D01*
X102304135Y-74407068D02*
X101946992Y-74407068D01*
X118007068Y-50938721D02*
X119507068Y-50438721D01*
X119507068Y-50438721D02*
X118007068Y-49938721D01*
X119364211Y-48581579D02*
X119435640Y-48653007D01*
X119435640Y-48653007D02*
X119507068Y-48867293D01*
X119507068Y-48867293D02*
X119507068Y-49010150D01*
X119507068Y-49010150D02*
X119435640Y-49224436D01*
X119435640Y-49224436D02*
X119292782Y-49367293D01*
X119292782Y-49367293D02*
X119149925Y-49438722D01*
X119149925Y-49438722D02*
X118864211Y-49510150D01*
X118864211Y-49510150D02*
X118649925Y-49510150D01*
X118649925Y-49510150D02*
X118364211Y-49438722D01*
X118364211Y-49438722D02*
X118221354Y-49367293D01*
X118221354Y-49367293D02*
X118078497Y-49224436D01*
X118078497Y-49224436D02*
X118007068Y-49010150D01*
X118007068Y-49010150D02*
X118007068Y-48867293D01*
X118007068Y-48867293D02*
X118078497Y-48653007D01*
X118078497Y-48653007D02*
X118149925Y-48581579D01*
X119364211Y-47081579D02*
X119435640Y-47153007D01*
X119435640Y-47153007D02*
X119507068Y-47367293D01*
X119507068Y-47367293D02*
X119507068Y-47510150D01*
X119507068Y-47510150D02*
X119435640Y-47724436D01*
X119435640Y-47724436D02*
X119292782Y-47867293D01*
X119292782Y-47867293D02*
X119149925Y-47938722D01*
X119149925Y-47938722D02*
X118864211Y-48010150D01*
X118864211Y-48010150D02*
X118649925Y-48010150D01*
X118649925Y-48010150D02*
X118364211Y-47938722D01*
X118364211Y-47938722D02*
X118221354Y-47867293D01*
X118221354Y-47867293D02*
X118078497Y-47724436D01*
X118078497Y-47724436D02*
X118007068Y-47510150D01*
X118007068Y-47510150D02*
X118007068Y-47367293D01*
X118007068Y-47367293D02*
X118078497Y-47153007D01*
X118078497Y-47153007D02*
X118149925Y-47081579D01*
X168907068Y-93138721D02*
X168907068Y-92281579D01*
X170407068Y-92710150D02*
X168907068Y-92710150D01*
X170407068Y-90924436D02*
X169692782Y-91424436D01*
X170407068Y-91781579D02*
X168907068Y-91781579D01*
X168907068Y-91781579D02*
X168907068Y-91210150D01*
X168907068Y-91210150D02*
X168978497Y-91067293D01*
X168978497Y-91067293D02*
X169049925Y-90995864D01*
X169049925Y-90995864D02*
X169192782Y-90924436D01*
X169192782Y-90924436D02*
X169407068Y-90924436D01*
X169407068Y-90924436D02*
X169549925Y-90995864D01*
X169549925Y-90995864D02*
X169621354Y-91067293D01*
X169621354Y-91067293D02*
X169692782Y-91210150D01*
X169692782Y-91210150D02*
X169692782Y-91781579D01*
X170407068Y-90281579D02*
X168907068Y-90281579D01*
X168978497Y-88781578D02*
X168907068Y-88924436D01*
X168907068Y-88924436D02*
X168907068Y-89138721D01*
X168907068Y-89138721D02*
X168978497Y-89353007D01*
X168978497Y-89353007D02*
X169121354Y-89495864D01*
X169121354Y-89495864D02*
X169264211Y-89567293D01*
X169264211Y-89567293D02*
X169549925Y-89638721D01*
X169549925Y-89638721D02*
X169764211Y-89638721D01*
X169764211Y-89638721D02*
X170049925Y-89567293D01*
X170049925Y-89567293D02*
X170192782Y-89495864D01*
X170192782Y-89495864D02*
X170335640Y-89353007D01*
X170335640Y-89353007D02*
X170407068Y-89138721D01*
X170407068Y-89138721D02*
X170407068Y-88995864D01*
X170407068Y-88995864D02*
X170335640Y-88781578D01*
X170335640Y-88781578D02*
X170264211Y-88710150D01*
X170264211Y-88710150D02*
X169764211Y-88710150D01*
X169764211Y-88710150D02*
X169764211Y-88995864D01*
X100032706Y-84807068D02*
X99532706Y-84092782D01*
X99175563Y-84807068D02*
X99175563Y-83307068D01*
X99175563Y-83307068D02*
X99746992Y-83307068D01*
X99746992Y-83307068D02*
X99889849Y-83378497D01*
X99889849Y-83378497D02*
X99961278Y-83449925D01*
X99961278Y-83449925D02*
X100032706Y-83592782D01*
X100032706Y-83592782D02*
X100032706Y-83807068D01*
X100032706Y-83807068D02*
X99961278Y-83949925D01*
X99961278Y-83949925D02*
X99889849Y-84021354D01*
X99889849Y-84021354D02*
X99746992Y-84092782D01*
X99746992Y-84092782D02*
X99175563Y-84092782D01*
X100604135Y-84735640D02*
X100818421Y-84807068D01*
X100818421Y-84807068D02*
X101175563Y-84807068D01*
X101175563Y-84807068D02*
X101318421Y-84735640D01*
X101318421Y-84735640D02*
X101389849Y-84664211D01*
X101389849Y-84664211D02*
X101461278Y-84521354D01*
X101461278Y-84521354D02*
X101461278Y-84378497D01*
X101461278Y-84378497D02*
X101389849Y-84235640D01*
X101389849Y-84235640D02*
X101318421Y-84164211D01*
X101318421Y-84164211D02*
X101175563Y-84092782D01*
X101175563Y-84092782D02*
X100889849Y-84021354D01*
X100889849Y-84021354D02*
X100746992Y-83949925D01*
X100746992Y-83949925D02*
X100675563Y-83878497D01*
X100675563Y-83878497D02*
X100604135Y-83735640D01*
X100604135Y-83735640D02*
X100604135Y-83592782D01*
X100604135Y-83592782D02*
X100675563Y-83449925D01*
X100675563Y-83449925D02*
X100746992Y-83378497D01*
X100746992Y-83378497D02*
X100889849Y-83307068D01*
X100889849Y-83307068D02*
X101246992Y-83307068D01*
X101246992Y-83307068D02*
X101461278Y-83378497D01*
X101889849Y-83307068D02*
X102746992Y-83307068D01*
X102318420Y-84807068D02*
X102318420Y-83307068D01*
X122075563Y-88907068D02*
X122075563Y-87407068D01*
X122075563Y-87407068D02*
X122575563Y-88478497D01*
X122575563Y-88478497D02*
X123075563Y-87407068D01*
X123075563Y-87407068D02*
X123075563Y-88907068D01*
X124575564Y-88907068D02*
X123718421Y-88907068D01*
X124146992Y-88907068D02*
X124146992Y-87407068D01*
X124146992Y-87407068D02*
X124004135Y-87621354D01*
X124004135Y-87621354D02*
X123861278Y-87764211D01*
X123861278Y-87764211D02*
X123718421Y-87835640D01*
X166475563Y-45607068D02*
X166475563Y-44107068D01*
X167189849Y-45607068D02*
X167189849Y-44107068D01*
X167189849Y-44107068D02*
X168046992Y-45607068D01*
X168046992Y-45607068D02*
X168046992Y-44107068D01*
X98075563Y-76907068D02*
X98075563Y-75407068D01*
X98075563Y-75407068D02*
X98575563Y-76478497D01*
X98575563Y-76478497D02*
X99075563Y-75407068D01*
X99075563Y-75407068D02*
X99075563Y-76907068D01*
X100075564Y-75407068D02*
X100361278Y-75407068D01*
X100361278Y-75407068D02*
X100504135Y-75478497D01*
X100504135Y-75478497D02*
X100646992Y-75621354D01*
X100646992Y-75621354D02*
X100718421Y-75907068D01*
X100718421Y-75907068D02*
X100718421Y-76407068D01*
X100718421Y-76407068D02*
X100646992Y-76692782D01*
X100646992Y-76692782D02*
X100504135Y-76835640D01*
X100504135Y-76835640D02*
X100361278Y-76907068D01*
X100361278Y-76907068D02*
X100075564Y-76907068D01*
X100075564Y-76907068D02*
X99932707Y-76835640D01*
X99932707Y-76835640D02*
X99789849Y-76692782D01*
X99789849Y-76692782D02*
X99718421Y-76407068D01*
X99718421Y-76407068D02*
X99718421Y-75907068D01*
X99718421Y-75907068D02*
X99789849Y-75621354D01*
X99789849Y-75621354D02*
X99932707Y-75478497D01*
X99932707Y-75478497D02*
X100075564Y-75407068D01*
X101289850Y-76835640D02*
X101504136Y-76907068D01*
X101504136Y-76907068D02*
X101861278Y-76907068D01*
X101861278Y-76907068D02*
X102004136Y-76835640D01*
X102004136Y-76835640D02*
X102075564Y-76764211D01*
X102075564Y-76764211D02*
X102146993Y-76621354D01*
X102146993Y-76621354D02*
X102146993Y-76478497D01*
X102146993Y-76478497D02*
X102075564Y-76335640D01*
X102075564Y-76335640D02*
X102004136Y-76264211D01*
X102004136Y-76264211D02*
X101861278Y-76192782D01*
X101861278Y-76192782D02*
X101575564Y-76121354D01*
X101575564Y-76121354D02*
X101432707Y-76049925D01*
X101432707Y-76049925D02*
X101361278Y-75978497D01*
X101361278Y-75978497D02*
X101289850Y-75835640D01*
X101289850Y-75835640D02*
X101289850Y-75692782D01*
X101289850Y-75692782D02*
X101361278Y-75549925D01*
X101361278Y-75549925D02*
X101432707Y-75478497D01*
X101432707Y-75478497D02*
X101575564Y-75407068D01*
X101575564Y-75407068D02*
X101932707Y-75407068D01*
X101932707Y-75407068D02*
X102146993Y-75478497D01*
X102789849Y-76907068D02*
X102789849Y-75407068D01*
X98904135Y-82135640D02*
X99118421Y-82207068D01*
X99118421Y-82207068D02*
X99475563Y-82207068D01*
X99475563Y-82207068D02*
X99618421Y-82135640D01*
X99618421Y-82135640D02*
X99689849Y-82064211D01*
X99689849Y-82064211D02*
X99761278Y-81921354D01*
X99761278Y-81921354D02*
X99761278Y-81778497D01*
X99761278Y-81778497D02*
X99689849Y-81635640D01*
X99689849Y-81635640D02*
X99618421Y-81564211D01*
X99618421Y-81564211D02*
X99475563Y-81492782D01*
X99475563Y-81492782D02*
X99189849Y-81421354D01*
X99189849Y-81421354D02*
X99046992Y-81349925D01*
X99046992Y-81349925D02*
X98975563Y-81278497D01*
X98975563Y-81278497D02*
X98904135Y-81135640D01*
X98904135Y-81135640D02*
X98904135Y-80992782D01*
X98904135Y-80992782D02*
X98975563Y-80849925D01*
X98975563Y-80849925D02*
X99046992Y-80778497D01*
X99046992Y-80778497D02*
X99189849Y-80707068D01*
X99189849Y-80707068D02*
X99546992Y-80707068D01*
X99546992Y-80707068D02*
X99761278Y-80778497D01*
X101261277Y-82064211D02*
X101189849Y-82135640D01*
X101189849Y-82135640D02*
X100975563Y-82207068D01*
X100975563Y-82207068D02*
X100832706Y-82207068D01*
X100832706Y-82207068D02*
X100618420Y-82135640D01*
X100618420Y-82135640D02*
X100475563Y-81992782D01*
X100475563Y-81992782D02*
X100404134Y-81849925D01*
X100404134Y-81849925D02*
X100332706Y-81564211D01*
X100332706Y-81564211D02*
X100332706Y-81349925D01*
X100332706Y-81349925D02*
X100404134Y-81064211D01*
X100404134Y-81064211D02*
X100475563Y-80921354D01*
X100475563Y-80921354D02*
X100618420Y-80778497D01*
X100618420Y-80778497D02*
X100832706Y-80707068D01*
X100832706Y-80707068D02*
X100975563Y-80707068D01*
X100975563Y-80707068D02*
X101189849Y-80778497D01*
X101189849Y-80778497D02*
X101261277Y-80849925D01*
X101904134Y-82207068D02*
X101904134Y-80707068D01*
X102761277Y-82207068D02*
X102118420Y-81349925D01*
X102761277Y-80707068D02*
X101904134Y-81564211D01*
D11*
X98580497Y-86435250D02*
X99723355Y-86435250D01*
X99151926Y-87006678D02*
X99151926Y-85863821D01*
X101151926Y-85506678D02*
X100437640Y-85506678D01*
X100437640Y-85506678D02*
X100366212Y-86220964D01*
X100366212Y-86220964D02*
X100437640Y-86149535D01*
X100437640Y-86149535D02*
X100580498Y-86078107D01*
X100580498Y-86078107D02*
X100937640Y-86078107D01*
X100937640Y-86078107D02*
X101080498Y-86149535D01*
X101080498Y-86149535D02*
X101151926Y-86220964D01*
X101151926Y-86220964D02*
X101223355Y-86363821D01*
X101223355Y-86363821D02*
X101223355Y-86720964D01*
X101223355Y-86720964D02*
X101151926Y-86863821D01*
X101151926Y-86863821D02*
X101080498Y-86935250D01*
X101080498Y-86935250D02*
X100937640Y-87006678D01*
X100937640Y-87006678D02*
X100580498Y-87006678D01*
X100580498Y-87006678D02*
X100437640Y-86935250D01*
X100437640Y-86935250D02*
X100366212Y-86863821D01*
X101651926Y-85506678D02*
X102151926Y-87006678D01*
X102151926Y-87006678D02*
X102651926Y-85506678D01*
D10*
X174378497Y-91838721D02*
X174307068Y-91981579D01*
X174307068Y-91981579D02*
X174307068Y-92195864D01*
X174307068Y-92195864D02*
X174378497Y-92410150D01*
X174378497Y-92410150D02*
X174521354Y-92553007D01*
X174521354Y-92553007D02*
X174664211Y-92624436D01*
X174664211Y-92624436D02*
X174949925Y-92695864D01*
X174949925Y-92695864D02*
X175164211Y-92695864D01*
X175164211Y-92695864D02*
X175449925Y-92624436D01*
X175449925Y-92624436D02*
X175592782Y-92553007D01*
X175592782Y-92553007D02*
X175735640Y-92410150D01*
X175735640Y-92410150D02*
X175807068Y-92195864D01*
X175807068Y-92195864D02*
X175807068Y-92053007D01*
X175807068Y-92053007D02*
X175735640Y-91838721D01*
X175735640Y-91838721D02*
X175664211Y-91767293D01*
X175664211Y-91767293D02*
X175164211Y-91767293D01*
X175164211Y-91767293D02*
X175164211Y-92053007D01*
X175807068Y-91124436D02*
X174307068Y-91124436D01*
X174307068Y-91124436D02*
X175807068Y-90267293D01*
X175807068Y-90267293D02*
X174307068Y-90267293D01*
X175807068Y-89553007D02*
X174307068Y-89553007D01*
X174307068Y-89553007D02*
X174307068Y-89195864D01*
X174307068Y-89195864D02*
X174378497Y-88981578D01*
X174378497Y-88981578D02*
X174521354Y-88838721D01*
X174521354Y-88838721D02*
X174664211Y-88767292D01*
X174664211Y-88767292D02*
X174949925Y-88695864D01*
X174949925Y-88695864D02*
X175164211Y-88695864D01*
X175164211Y-88695864D02*
X175449925Y-88767292D01*
X175449925Y-88767292D02*
X175592782Y-88838721D01*
X175592782Y-88838721D02*
X175735640Y-88981578D01*
X175735640Y-88981578D02*
X175807068Y-89195864D01*
X175807068Y-89195864D02*
X175807068Y-89553007D01*
D12*
X124801333Y-80115060D02*
X124753714Y-80162680D01*
X124753714Y-80162680D02*
X124610857Y-80210299D01*
X124610857Y-80210299D02*
X124515619Y-80210299D01*
X124515619Y-80210299D02*
X124372762Y-80162680D01*
X124372762Y-80162680D02*
X124277524Y-80067441D01*
X124277524Y-80067441D02*
X124229905Y-79972203D01*
X124229905Y-79972203D02*
X124182286Y-79781727D01*
X124182286Y-79781727D02*
X124182286Y-79638870D01*
X124182286Y-79638870D02*
X124229905Y-79448394D01*
X124229905Y-79448394D02*
X124277524Y-79353156D01*
X124277524Y-79353156D02*
X124372762Y-79257918D01*
X124372762Y-79257918D02*
X124515619Y-79210299D01*
X124515619Y-79210299D02*
X124610857Y-79210299D01*
X124610857Y-79210299D02*
X124753714Y-79257918D01*
X124753714Y-79257918D02*
X124801333Y-79305537D01*
X125658476Y-79543632D02*
X125658476Y-80210299D01*
X125420381Y-79162680D02*
X125182286Y-79876965D01*
X125182286Y-79876965D02*
X125801333Y-79876965D01*
X109198060Y-62496666D02*
X109245680Y-62544285D01*
X109245680Y-62544285D02*
X109293299Y-62687142D01*
X109293299Y-62687142D02*
X109293299Y-62782380D01*
X109293299Y-62782380D02*
X109245680Y-62925237D01*
X109245680Y-62925237D02*
X109150441Y-63020475D01*
X109150441Y-63020475D02*
X109055203Y-63068094D01*
X109055203Y-63068094D02*
X108864727Y-63115713D01*
X108864727Y-63115713D02*
X108721870Y-63115713D01*
X108721870Y-63115713D02*
X108531394Y-63068094D01*
X108531394Y-63068094D02*
X108436156Y-63020475D01*
X108436156Y-63020475D02*
X108340918Y-62925237D01*
X108340918Y-62925237D02*
X108293299Y-62782380D01*
X108293299Y-62782380D02*
X108293299Y-62687142D01*
X108293299Y-62687142D02*
X108340918Y-62544285D01*
X108340918Y-62544285D02*
X108388537Y-62496666D01*
X108293299Y-62163332D02*
X108293299Y-61496666D01*
X108293299Y-61496666D02*
X109293299Y-61925237D01*
X180624299Y-52236666D02*
X180148108Y-52569999D01*
X180624299Y-52808094D02*
X179624299Y-52808094D01*
X179624299Y-52808094D02*
X179624299Y-52427142D01*
X179624299Y-52427142D02*
X179671918Y-52331904D01*
X179671918Y-52331904D02*
X179719537Y-52284285D01*
X179719537Y-52284285D02*
X179814775Y-52236666D01*
X179814775Y-52236666D02*
X179957632Y-52236666D01*
X179957632Y-52236666D02*
X180052870Y-52284285D01*
X180052870Y-52284285D02*
X180100489Y-52331904D01*
X180100489Y-52331904D02*
X180148108Y-52427142D01*
X180148108Y-52427142D02*
X180148108Y-52808094D01*
X179719537Y-51855713D02*
X179671918Y-51808094D01*
X179671918Y-51808094D02*
X179624299Y-51712856D01*
X179624299Y-51712856D02*
X179624299Y-51474761D01*
X179624299Y-51474761D02*
X179671918Y-51379523D01*
X179671918Y-51379523D02*
X179719537Y-51331904D01*
X179719537Y-51331904D02*
X179814775Y-51284285D01*
X179814775Y-51284285D02*
X179910013Y-51284285D01*
X179910013Y-51284285D02*
X180052870Y-51331904D01*
X180052870Y-51331904D02*
X180624299Y-51903332D01*
X180624299Y-51903332D02*
X180624299Y-51284285D01*
X120229333Y-54715060D02*
X120181714Y-54762680D01*
X120181714Y-54762680D02*
X120038857Y-54810299D01*
X120038857Y-54810299D02*
X119943619Y-54810299D01*
X119943619Y-54810299D02*
X119800762Y-54762680D01*
X119800762Y-54762680D02*
X119705524Y-54667441D01*
X119705524Y-54667441D02*
X119657905Y-54572203D01*
X119657905Y-54572203D02*
X119610286Y-54381727D01*
X119610286Y-54381727D02*
X119610286Y-54238870D01*
X119610286Y-54238870D02*
X119657905Y-54048394D01*
X119657905Y-54048394D02*
X119705524Y-53953156D01*
X119705524Y-53953156D02*
X119800762Y-53857918D01*
X119800762Y-53857918D02*
X119943619Y-53810299D01*
X119943619Y-53810299D02*
X120038857Y-53810299D01*
X120038857Y-53810299D02*
X120181714Y-53857918D01*
X120181714Y-53857918D02*
X120229333Y-53905537D01*
X120610286Y-53905537D02*
X120657905Y-53857918D01*
X120657905Y-53857918D02*
X120753143Y-53810299D01*
X120753143Y-53810299D02*
X120991238Y-53810299D01*
X120991238Y-53810299D02*
X121086476Y-53857918D01*
X121086476Y-53857918D02*
X121134095Y-53905537D01*
X121134095Y-53905537D02*
X121181714Y-54000775D01*
X121181714Y-54000775D02*
X121181714Y-54096013D01*
X121181714Y-54096013D02*
X121134095Y-54238870D01*
X121134095Y-54238870D02*
X120562667Y-54810299D01*
X120562667Y-54810299D02*
X121181714Y-54810299D01*
X190079595Y-73328799D02*
X190079595Y-74138322D01*
X190079595Y-74138322D02*
X190127214Y-74233560D01*
X190127214Y-74233560D02*
X190174833Y-74281180D01*
X190174833Y-74281180D02*
X190270071Y-74328799D01*
X190270071Y-74328799D02*
X190460547Y-74328799D01*
X190460547Y-74328799D02*
X190555785Y-74281180D01*
X190555785Y-74281180D02*
X190603404Y-74233560D01*
X190603404Y-74233560D02*
X190651023Y-74138322D01*
X190651023Y-74138322D02*
X190651023Y-73328799D01*
X191555785Y-73662132D02*
X191555785Y-74328799D01*
X191317690Y-73281180D02*
X191079595Y-73995465D01*
X191079595Y-73995465D02*
X191698642Y-73995465D01*
X147316299Y-73415904D02*
X148125822Y-73415904D01*
X148125822Y-73415904D02*
X148221060Y-73368285D01*
X148221060Y-73368285D02*
X148268680Y-73320666D01*
X148268680Y-73320666D02*
X148316299Y-73225428D01*
X148316299Y-73225428D02*
X148316299Y-73034952D01*
X148316299Y-73034952D02*
X148268680Y-72939714D01*
X148268680Y-72939714D02*
X148221060Y-72892095D01*
X148221060Y-72892095D02*
X148125822Y-72844476D01*
X148125822Y-72844476D02*
X147316299Y-72844476D01*
X148316299Y-71844476D02*
X148316299Y-72415904D01*
X148316299Y-72130190D02*
X147316299Y-72130190D01*
X147316299Y-72130190D02*
X147459156Y-72225428D01*
X147459156Y-72225428D02*
X147554394Y-72320666D01*
X147554394Y-72320666D02*
X147602013Y-72415904D01*
X125309333Y-54715060D02*
X125261714Y-54762680D01*
X125261714Y-54762680D02*
X125118857Y-54810299D01*
X125118857Y-54810299D02*
X125023619Y-54810299D01*
X125023619Y-54810299D02*
X124880762Y-54762680D01*
X124880762Y-54762680D02*
X124785524Y-54667441D01*
X124785524Y-54667441D02*
X124737905Y-54572203D01*
X124737905Y-54572203D02*
X124690286Y-54381727D01*
X124690286Y-54381727D02*
X124690286Y-54238870D01*
X124690286Y-54238870D02*
X124737905Y-54048394D01*
X124737905Y-54048394D02*
X124785524Y-53953156D01*
X124785524Y-53953156D02*
X124880762Y-53857918D01*
X124880762Y-53857918D02*
X125023619Y-53810299D01*
X125023619Y-53810299D02*
X125118857Y-53810299D01*
X125118857Y-53810299D02*
X125261714Y-53857918D01*
X125261714Y-53857918D02*
X125309333Y-53905537D01*
X126261714Y-54810299D02*
X125690286Y-54810299D01*
X125976000Y-54810299D02*
X125976000Y-53810299D01*
X125976000Y-53810299D02*
X125880762Y-53953156D01*
X125880762Y-53953156D02*
X125785524Y-54048394D01*
X125785524Y-54048394D02*
X125690286Y-54096013D01*
X173004299Y-52236666D02*
X172528108Y-52569999D01*
X173004299Y-52808094D02*
X172004299Y-52808094D01*
X172004299Y-52808094D02*
X172004299Y-52427142D01*
X172004299Y-52427142D02*
X172051918Y-52331904D01*
X172051918Y-52331904D02*
X172099537Y-52284285D01*
X172099537Y-52284285D02*
X172194775Y-52236666D01*
X172194775Y-52236666D02*
X172337632Y-52236666D01*
X172337632Y-52236666D02*
X172432870Y-52284285D01*
X172432870Y-52284285D02*
X172480489Y-52331904D01*
X172480489Y-52331904D02*
X172528108Y-52427142D01*
X172528108Y-52427142D02*
X172528108Y-52808094D01*
X172337632Y-51379523D02*
X173004299Y-51379523D01*
X171956680Y-51617618D02*
X172670965Y-51855713D01*
X172670965Y-51855713D02*
X172670965Y-51236666D01*
X115855809Y-61192108D02*
X115855809Y-61668299D01*
X115522476Y-60668299D02*
X115855809Y-61192108D01*
X115855809Y-61192108D02*
X116189142Y-60668299D01*
X117046285Y-61668299D02*
X116474857Y-61668299D01*
X116760571Y-61668299D02*
X116760571Y-60668299D01*
X116760571Y-60668299D02*
X116665333Y-60811156D01*
X116665333Y-60811156D02*
X116570095Y-60906394D01*
X116570095Y-60906394D02*
X116474857Y-60954013D01*
X122896333Y-84306060D02*
X122848714Y-84353680D01*
X122848714Y-84353680D02*
X122705857Y-84401299D01*
X122705857Y-84401299D02*
X122610619Y-84401299D01*
X122610619Y-84401299D02*
X122467762Y-84353680D01*
X122467762Y-84353680D02*
X122372524Y-84258441D01*
X122372524Y-84258441D02*
X122324905Y-84163203D01*
X122324905Y-84163203D02*
X122277286Y-83972727D01*
X122277286Y-83972727D02*
X122277286Y-83829870D01*
X122277286Y-83829870D02*
X122324905Y-83639394D01*
X122324905Y-83639394D02*
X122372524Y-83544156D01*
X122372524Y-83544156D02*
X122467762Y-83448918D01*
X122467762Y-83448918D02*
X122610619Y-83401299D01*
X122610619Y-83401299D02*
X122705857Y-83401299D01*
X122705857Y-83401299D02*
X122848714Y-83448918D01*
X122848714Y-83448918D02*
X122896333Y-83496537D01*
X123753476Y-83401299D02*
X123563000Y-83401299D01*
X123563000Y-83401299D02*
X123467762Y-83448918D01*
X123467762Y-83448918D02*
X123420143Y-83496537D01*
X123420143Y-83496537D02*
X123324905Y-83639394D01*
X123324905Y-83639394D02*
X123277286Y-83829870D01*
X123277286Y-83829870D02*
X123277286Y-84210822D01*
X123277286Y-84210822D02*
X123324905Y-84306060D01*
X123324905Y-84306060D02*
X123372524Y-84353680D01*
X123372524Y-84353680D02*
X123467762Y-84401299D01*
X123467762Y-84401299D02*
X123658238Y-84401299D01*
X123658238Y-84401299D02*
X123753476Y-84353680D01*
X123753476Y-84353680D02*
X123801095Y-84306060D01*
X123801095Y-84306060D02*
X123848714Y-84210822D01*
X123848714Y-84210822D02*
X123848714Y-83972727D01*
X123848714Y-83972727D02*
X123801095Y-83877489D01*
X123801095Y-83877489D02*
X123753476Y-83829870D01*
X123753476Y-83829870D02*
X123658238Y-83782251D01*
X123658238Y-83782251D02*
X123467762Y-83782251D01*
X123467762Y-83782251D02*
X123372524Y-83829870D01*
X123372524Y-83829870D02*
X123324905Y-83877489D01*
X123324905Y-83877489D02*
X123277286Y-83972727D01*
X112354299Y-48966666D02*
X111878108Y-49299999D01*
X112354299Y-49538094D02*
X111354299Y-49538094D01*
X111354299Y-49538094D02*
X111354299Y-49157142D01*
X111354299Y-49157142D02*
X111401918Y-49061904D01*
X111401918Y-49061904D02*
X111449537Y-49014285D01*
X111449537Y-49014285D02*
X111544775Y-48966666D01*
X111544775Y-48966666D02*
X111687632Y-48966666D01*
X111687632Y-48966666D02*
X111782870Y-49014285D01*
X111782870Y-49014285D02*
X111830489Y-49061904D01*
X111830489Y-49061904D02*
X111878108Y-49157142D01*
X111878108Y-49157142D02*
X111878108Y-49538094D01*
X111354299Y-48633332D02*
X111354299Y-48014285D01*
X111354299Y-48014285D02*
X111735251Y-48347618D01*
X111735251Y-48347618D02*
X111735251Y-48204761D01*
X111735251Y-48204761D02*
X111782870Y-48109523D01*
X111782870Y-48109523D02*
X111830489Y-48061904D01*
X111830489Y-48061904D02*
X111925727Y-48014285D01*
X111925727Y-48014285D02*
X112163822Y-48014285D01*
X112163822Y-48014285D02*
X112259060Y-48061904D01*
X112259060Y-48061904D02*
X112306680Y-48109523D01*
X112306680Y-48109523D02*
X112354299Y-48204761D01*
X112354299Y-48204761D02*
X112354299Y-48490475D01*
X112354299Y-48490475D02*
X112306680Y-48585713D01*
X112306680Y-48585713D02*
X112259060Y-48633332D01*
X132929333Y-65256060D02*
X132881714Y-65303680D01*
X132881714Y-65303680D02*
X132738857Y-65351299D01*
X132738857Y-65351299D02*
X132643619Y-65351299D01*
X132643619Y-65351299D02*
X132500762Y-65303680D01*
X132500762Y-65303680D02*
X132405524Y-65208441D01*
X132405524Y-65208441D02*
X132357905Y-65113203D01*
X132357905Y-65113203D02*
X132310286Y-64922727D01*
X132310286Y-64922727D02*
X132310286Y-64779870D01*
X132310286Y-64779870D02*
X132357905Y-64589394D01*
X132357905Y-64589394D02*
X132405524Y-64494156D01*
X132405524Y-64494156D02*
X132500762Y-64398918D01*
X132500762Y-64398918D02*
X132643619Y-64351299D01*
X132643619Y-64351299D02*
X132738857Y-64351299D01*
X132738857Y-64351299D02*
X132881714Y-64398918D01*
X132881714Y-64398918D02*
X132929333Y-64446537D01*
X133834095Y-64351299D02*
X133357905Y-64351299D01*
X133357905Y-64351299D02*
X133310286Y-64827489D01*
X133310286Y-64827489D02*
X133357905Y-64779870D01*
X133357905Y-64779870D02*
X133453143Y-64732251D01*
X133453143Y-64732251D02*
X133691238Y-64732251D01*
X133691238Y-64732251D02*
X133786476Y-64779870D01*
X133786476Y-64779870D02*
X133834095Y-64827489D01*
X133834095Y-64827489D02*
X133881714Y-64922727D01*
X133881714Y-64922727D02*
X133881714Y-65160822D01*
X133881714Y-65160822D02*
X133834095Y-65256060D01*
X133834095Y-65256060D02*
X133786476Y-65303680D01*
X133786476Y-65303680D02*
X133691238Y-65351299D01*
X133691238Y-65351299D02*
X133453143Y-65351299D01*
X133453143Y-65351299D02*
X133357905Y-65303680D01*
X133357905Y-65303680D02*
X133310286Y-65256060D01*
X136485333Y-53456299D02*
X136152000Y-52980108D01*
X135913905Y-53456299D02*
X135913905Y-52456299D01*
X135913905Y-52456299D02*
X136294857Y-52456299D01*
X136294857Y-52456299D02*
X136390095Y-52503918D01*
X136390095Y-52503918D02*
X136437714Y-52551537D01*
X136437714Y-52551537D02*
X136485333Y-52646775D01*
X136485333Y-52646775D02*
X136485333Y-52789632D01*
X136485333Y-52789632D02*
X136437714Y-52884870D01*
X136437714Y-52884870D02*
X136390095Y-52932489D01*
X136390095Y-52932489D02*
X136294857Y-52980108D01*
X136294857Y-52980108D02*
X135913905Y-52980108D01*
X137437714Y-53456299D02*
X136866286Y-53456299D01*
X137152000Y-53456299D02*
X137152000Y-52456299D01*
X137152000Y-52456299D02*
X137056762Y-52599156D01*
X137056762Y-52599156D02*
X136961524Y-52694394D01*
X136961524Y-52694394D02*
X136866286Y-52742013D01*
X134650299Y-48934666D02*
X134174108Y-49267999D01*
X134650299Y-49506094D02*
X133650299Y-49506094D01*
X133650299Y-49506094D02*
X133650299Y-49125142D01*
X133650299Y-49125142D02*
X133697918Y-49029904D01*
X133697918Y-49029904D02*
X133745537Y-48982285D01*
X133745537Y-48982285D02*
X133840775Y-48934666D01*
X133840775Y-48934666D02*
X133983632Y-48934666D01*
X133983632Y-48934666D02*
X134078870Y-48982285D01*
X134078870Y-48982285D02*
X134126489Y-49029904D01*
X134126489Y-49029904D02*
X134174108Y-49125142D01*
X134174108Y-49125142D02*
X134174108Y-49506094D01*
X133650299Y-48029904D02*
X133650299Y-48506094D01*
X133650299Y-48506094D02*
X134126489Y-48553713D01*
X134126489Y-48553713D02*
X134078870Y-48506094D01*
X134078870Y-48506094D02*
X134031251Y-48410856D01*
X134031251Y-48410856D02*
X134031251Y-48172761D01*
X134031251Y-48172761D02*
X134078870Y-48077523D01*
X134078870Y-48077523D02*
X134126489Y-48029904D01*
X134126489Y-48029904D02*
X134221727Y-47982285D01*
X134221727Y-47982285D02*
X134459822Y-47982285D01*
X134459822Y-47982285D02*
X134555060Y-48029904D01*
X134555060Y-48029904D02*
X134602680Y-48077523D01*
X134602680Y-48077523D02*
X134650299Y-48172761D01*
X134650299Y-48172761D02*
X134650299Y-48410856D01*
X134650299Y-48410856D02*
X134602680Y-48506094D01*
X134602680Y-48506094D02*
X134555060Y-48553713D01*
X133488095Y-99454299D02*
X133488095Y-100263822D01*
X133488095Y-100263822D02*
X133535714Y-100359060D01*
X133535714Y-100359060D02*
X133583333Y-100406680D01*
X133583333Y-100406680D02*
X133678571Y-100454299D01*
X133678571Y-100454299D02*
X133869047Y-100454299D01*
X133869047Y-100454299D02*
X133964285Y-100406680D01*
X133964285Y-100406680D02*
X134011904Y-100359060D01*
X134011904Y-100359060D02*
X134059523Y-100263822D01*
X134059523Y-100263822D02*
X134059523Y-99454299D01*
X134488095Y-99549537D02*
X134535714Y-99501918D01*
X134535714Y-99501918D02*
X134630952Y-99454299D01*
X134630952Y-99454299D02*
X134869047Y-99454299D01*
X134869047Y-99454299D02*
X134964285Y-99501918D01*
X134964285Y-99501918D02*
X135011904Y-99549537D01*
X135011904Y-99549537D02*
X135059523Y-99644775D01*
X135059523Y-99644775D02*
X135059523Y-99740013D01*
X135059523Y-99740013D02*
X135011904Y-99882870D01*
X135011904Y-99882870D02*
X134440476Y-100454299D01*
X134440476Y-100454299D02*
X135059523Y-100454299D01*
X146460333Y-53445060D02*
X146412714Y-53492680D01*
X146412714Y-53492680D02*
X146269857Y-53540299D01*
X146269857Y-53540299D02*
X146174619Y-53540299D01*
X146174619Y-53540299D02*
X146031762Y-53492680D01*
X146031762Y-53492680D02*
X145936524Y-53397441D01*
X145936524Y-53397441D02*
X145888905Y-53302203D01*
X145888905Y-53302203D02*
X145841286Y-53111727D01*
X145841286Y-53111727D02*
X145841286Y-52968870D01*
X145841286Y-52968870D02*
X145888905Y-52778394D01*
X145888905Y-52778394D02*
X145936524Y-52683156D01*
X145936524Y-52683156D02*
X146031762Y-52587918D01*
X146031762Y-52587918D02*
X146174619Y-52540299D01*
X146174619Y-52540299D02*
X146269857Y-52540299D01*
X146269857Y-52540299D02*
X146412714Y-52587918D01*
X146412714Y-52587918D02*
X146460333Y-52635537D01*
X146793667Y-52540299D02*
X147412714Y-52540299D01*
X147412714Y-52540299D02*
X147079381Y-52921251D01*
X147079381Y-52921251D02*
X147222238Y-52921251D01*
X147222238Y-52921251D02*
X147317476Y-52968870D01*
X147317476Y-52968870D02*
X147365095Y-53016489D01*
X147365095Y-53016489D02*
X147412714Y-53111727D01*
X147412714Y-53111727D02*
X147412714Y-53349822D01*
X147412714Y-53349822D02*
X147365095Y-53445060D01*
X147365095Y-53445060D02*
X147317476Y-53492680D01*
X147317476Y-53492680D02*
X147222238Y-53540299D01*
X147222238Y-53540299D02*
X146936524Y-53540299D01*
X146936524Y-53540299D02*
X146841286Y-53492680D01*
X146841286Y-53492680D02*
X146793667Y-53445060D01*
X174533333Y-83454299D02*
X174200000Y-82978108D01*
X173961905Y-83454299D02*
X173961905Y-82454299D01*
X173961905Y-82454299D02*
X174342857Y-82454299D01*
X174342857Y-82454299D02*
X174438095Y-82501918D01*
X174438095Y-82501918D02*
X174485714Y-82549537D01*
X174485714Y-82549537D02*
X174533333Y-82644775D01*
X174533333Y-82644775D02*
X174533333Y-82787632D01*
X174533333Y-82787632D02*
X174485714Y-82882870D01*
X174485714Y-82882870D02*
X174438095Y-82930489D01*
X174438095Y-82930489D02*
X174342857Y-82978108D01*
X174342857Y-82978108D02*
X173961905Y-82978108D01*
X175390476Y-82454299D02*
X175200000Y-82454299D01*
X175200000Y-82454299D02*
X175104762Y-82501918D01*
X175104762Y-82501918D02*
X175057143Y-82549537D01*
X175057143Y-82549537D02*
X174961905Y-82692394D01*
X174961905Y-82692394D02*
X174914286Y-82882870D01*
X174914286Y-82882870D02*
X174914286Y-83263822D01*
X174914286Y-83263822D02*
X174961905Y-83359060D01*
X174961905Y-83359060D02*
X175009524Y-83406680D01*
X175009524Y-83406680D02*
X175104762Y-83454299D01*
X175104762Y-83454299D02*
X175295238Y-83454299D01*
X175295238Y-83454299D02*
X175390476Y-83406680D01*
X175390476Y-83406680D02*
X175438095Y-83359060D01*
X175438095Y-83359060D02*
X175485714Y-83263822D01*
X175485714Y-83263822D02*
X175485714Y-83025727D01*
X175485714Y-83025727D02*
X175438095Y-82930489D01*
X175438095Y-82930489D02*
X175390476Y-82882870D01*
X175390476Y-82882870D02*
X175295238Y-82835251D01*
X175295238Y-82835251D02*
X175104762Y-82835251D01*
X175104762Y-82835251D02*
X175009524Y-82882870D01*
X175009524Y-82882870D02*
X174961905Y-82930489D01*
X174961905Y-82930489D02*
X174914286Y-83025727D01*
D13*
X131652000Y-80999000D02*
X131652000Y-78259000D01*
X131652000Y-80999000D02*
X126412000Y-80999000D01*
X131652000Y-78259000D02*
X126412000Y-78259000D01*
X126412000Y-80999000D02*
X126412000Y-78259000D01*
X102809000Y-65850241D02*
X102809000Y-65220241D01*
X102494000Y-65535241D02*
X103124000Y-65535241D01*
X101418000Y-62350000D02*
X107878000Y-62350000D01*
X101418000Y-62310000D02*
X107878000Y-62310000D01*
X101418000Y-62270000D02*
X107878000Y-62270000D01*
X101420000Y-62230000D02*
X107876000Y-62230000D01*
X101421000Y-62190000D02*
X107875000Y-62190000D01*
X101424000Y-62150000D02*
X107872000Y-62150000D01*
X101426000Y-62110000D02*
X103608000Y-62110000D01*
X105688000Y-62110000D02*
X107870000Y-62110000D01*
X101430000Y-62070000D02*
X103608000Y-62070000D01*
X105688000Y-62070000D02*
X107866000Y-62070000D01*
X101433000Y-62030000D02*
X103608000Y-62030000D01*
X105688000Y-62030000D02*
X107863000Y-62030000D01*
X101437000Y-61990000D02*
X103608000Y-61990000D01*
X105688000Y-61990000D02*
X107859000Y-61990000D01*
X101442000Y-61950000D02*
X103608000Y-61950000D01*
X105688000Y-61950000D02*
X107854000Y-61950000D01*
X101447000Y-61910000D02*
X103608000Y-61910000D01*
X105688000Y-61910000D02*
X107849000Y-61910000D01*
X101453000Y-61870000D02*
X103608000Y-61870000D01*
X105688000Y-61870000D02*
X107843000Y-61870000D01*
X101459000Y-61830000D02*
X103608000Y-61830000D01*
X105688000Y-61830000D02*
X107837000Y-61830000D01*
X101466000Y-61790000D02*
X103608000Y-61790000D01*
X105688000Y-61790000D02*
X107830000Y-61790000D01*
X101473000Y-61750000D02*
X103608000Y-61750000D01*
X105688000Y-61750000D02*
X107823000Y-61750000D01*
X101481000Y-61710000D02*
X103608000Y-61710000D01*
X105688000Y-61710000D02*
X107815000Y-61710000D01*
X101489000Y-61670000D02*
X103608000Y-61670000D01*
X105688000Y-61670000D02*
X107807000Y-61670000D01*
X101498000Y-61629000D02*
X103608000Y-61629000D01*
X105688000Y-61629000D02*
X107798000Y-61629000D01*
X101507000Y-61589000D02*
X103608000Y-61589000D01*
X105688000Y-61589000D02*
X107789000Y-61589000D01*
X101517000Y-61549000D02*
X103608000Y-61549000D01*
X105688000Y-61549000D02*
X107779000Y-61549000D01*
X101527000Y-61509000D02*
X103608000Y-61509000D01*
X105688000Y-61509000D02*
X107769000Y-61509000D01*
X101538000Y-61469000D02*
X103608000Y-61469000D01*
X105688000Y-61469000D02*
X107758000Y-61469000D01*
X101550000Y-61429000D02*
X103608000Y-61429000D01*
X105688000Y-61429000D02*
X107746000Y-61429000D01*
X101562000Y-61389000D02*
X103608000Y-61389000D01*
X105688000Y-61389000D02*
X107734000Y-61389000D01*
X101574000Y-61349000D02*
X103608000Y-61349000D01*
X105688000Y-61349000D02*
X107722000Y-61349000D01*
X101587000Y-61309000D02*
X103608000Y-61309000D01*
X105688000Y-61309000D02*
X107709000Y-61309000D01*
X101601000Y-61269000D02*
X103608000Y-61269000D01*
X105688000Y-61269000D02*
X107695000Y-61269000D01*
X101615000Y-61229000D02*
X103608000Y-61229000D01*
X105688000Y-61229000D02*
X107681000Y-61229000D01*
X101630000Y-61189000D02*
X103608000Y-61189000D01*
X105688000Y-61189000D02*
X107666000Y-61189000D01*
X101646000Y-61149000D02*
X103608000Y-61149000D01*
X105688000Y-61149000D02*
X107650000Y-61149000D01*
X101662000Y-61109000D02*
X103608000Y-61109000D01*
X105688000Y-61109000D02*
X107634000Y-61109000D01*
X101678000Y-61069000D02*
X103608000Y-61069000D01*
X105688000Y-61069000D02*
X107618000Y-61069000D01*
X101696000Y-61029000D02*
X103608000Y-61029000D01*
X105688000Y-61029000D02*
X107600000Y-61029000D01*
X101714000Y-60989000D02*
X103608000Y-60989000D01*
X105688000Y-60989000D02*
X107582000Y-60989000D01*
X101732000Y-60949000D02*
X103608000Y-60949000D01*
X105688000Y-60949000D02*
X107564000Y-60949000D01*
X101752000Y-60909000D02*
X103608000Y-60909000D01*
X105688000Y-60909000D02*
X107544000Y-60909000D01*
X101772000Y-60869000D02*
X103608000Y-60869000D01*
X105688000Y-60869000D02*
X107524000Y-60869000D01*
X101792000Y-60829000D02*
X103608000Y-60829000D01*
X105688000Y-60829000D02*
X107504000Y-60829000D01*
X101814000Y-60789000D02*
X103608000Y-60789000D01*
X105688000Y-60789000D02*
X107482000Y-60789000D01*
X101836000Y-60749000D02*
X103608000Y-60749000D01*
X105688000Y-60749000D02*
X107460000Y-60749000D01*
X101858000Y-60709000D02*
X103608000Y-60709000D01*
X105688000Y-60709000D02*
X107438000Y-60709000D01*
X101882000Y-60669000D02*
X103608000Y-60669000D01*
X105688000Y-60669000D02*
X107414000Y-60669000D01*
X101906000Y-60629000D02*
X103608000Y-60629000D01*
X105688000Y-60629000D02*
X107390000Y-60629000D01*
X101932000Y-60589000D02*
X103608000Y-60589000D01*
X105688000Y-60589000D02*
X107364000Y-60589000D01*
X101958000Y-60549000D02*
X103608000Y-60549000D01*
X105688000Y-60549000D02*
X107338000Y-60549000D01*
X101984000Y-60509000D02*
X103608000Y-60509000D01*
X105688000Y-60509000D02*
X107312000Y-60509000D01*
X102012000Y-60469000D02*
X103608000Y-60469000D01*
X105688000Y-60469000D02*
X107284000Y-60469000D01*
X102041000Y-60429000D02*
X103608000Y-60429000D01*
X105688000Y-60429000D02*
X107255000Y-60429000D01*
X102070000Y-60389000D02*
X103608000Y-60389000D01*
X105688000Y-60389000D02*
X107226000Y-60389000D01*
X102100000Y-60349000D02*
X103608000Y-60349000D01*
X105688000Y-60349000D02*
X107196000Y-60349000D01*
X102132000Y-60309000D02*
X103608000Y-60309000D01*
X105688000Y-60309000D02*
X107164000Y-60309000D01*
X102164000Y-60269000D02*
X103608000Y-60269000D01*
X105688000Y-60269000D02*
X107132000Y-60269000D01*
X102198000Y-60229000D02*
X103608000Y-60229000D01*
X105688000Y-60229000D02*
X107098000Y-60229000D01*
X102232000Y-60189000D02*
X103608000Y-60189000D01*
X105688000Y-60189000D02*
X107064000Y-60189000D01*
X102268000Y-60149000D02*
X103608000Y-60149000D01*
X105688000Y-60149000D02*
X107028000Y-60149000D01*
X102305000Y-60109000D02*
X103608000Y-60109000D01*
X105688000Y-60109000D02*
X106991000Y-60109000D01*
X102343000Y-60069000D02*
X103608000Y-60069000D01*
X105688000Y-60069000D02*
X106953000Y-60069000D01*
X102383000Y-60029000D02*
X106913000Y-60029000D01*
X102424000Y-59989000D02*
X106872000Y-59989000D01*
X102466000Y-59949000D02*
X106830000Y-59949000D01*
X102511000Y-59909000D02*
X106785000Y-59909000D01*
X102556000Y-59869000D02*
X106740000Y-59869000D01*
X102604000Y-59829000D02*
X106692000Y-59829000D01*
X102653000Y-59789000D02*
X106643000Y-59789000D01*
X102704000Y-59749000D02*
X106592000Y-59749000D01*
X102758000Y-59709000D02*
X106538000Y-59709000D01*
X102814000Y-59669000D02*
X106482000Y-59669000D01*
X102872000Y-59629000D02*
X106424000Y-59629000D01*
X102934000Y-59589000D02*
X106362000Y-59589000D01*
X102998000Y-59549000D02*
X106298000Y-59549000D01*
X103067000Y-59509000D02*
X106229000Y-59509000D01*
X103139000Y-59469000D02*
X106157000Y-59469000D01*
X103216000Y-59429000D02*
X106080000Y-59429000D01*
X103298000Y-59389000D02*
X105998000Y-59389000D01*
X103386000Y-59349000D02*
X105910000Y-59349000D01*
X103483000Y-59309000D02*
X105813000Y-59309000D01*
X103589000Y-59269000D02*
X105707000Y-59269000D01*
X103708000Y-59229000D02*
X105588000Y-59229000D01*
X103846000Y-59189000D02*
X105450000Y-59189000D01*
X104015000Y-59149000D02*
X105281000Y-59149000D01*
X104246000Y-59109000D02*
X105050000Y-59109000D01*
X107918000Y-62350000D02*
G75*
G03*
X107918000Y-62350000I-3270000J0D01*
G01*
X179170000Y-48800000D02*
X179170000Y-55340000D01*
X178840000Y-48800000D02*
X179170000Y-48800000D01*
X176760000Y-48800000D02*
X176430000Y-48800000D01*
X176430000Y-48800000D02*
X176430000Y-55340000D01*
X179170000Y-55340000D02*
X178840000Y-55340000D01*
X176430000Y-55340000D02*
X176760000Y-55340000D01*
X122290000Y-57508000D02*
X122290000Y-57443000D01*
X122290000Y-57508000D02*
X119050000Y-57508000D01*
X122290000Y-55333000D02*
X122290000Y-55268000D01*
X122290000Y-55268000D02*
X119050000Y-55268000D01*
X119050000Y-57508000D02*
X119050000Y-57443000D01*
X119050000Y-55333000D02*
X119050000Y-55268000D01*
X103654000Y-74955000D02*
X103654000Y-87715000D01*
X103654000Y-74955000D02*
X106314000Y-74955000D01*
X103654000Y-87715000D02*
X106314000Y-87715000D01*
X104984000Y-72355000D02*
X106314000Y-72355000D01*
X106314000Y-72355000D02*
X106314000Y-73685000D01*
X106314000Y-74955000D02*
X106314000Y-87715000D01*
D14*
X194397500Y-79462500D02*
X151217500Y-79462500D01*
X194397500Y-58380500D02*
X194397500Y-79462500D01*
X192365500Y-70318500D02*
X192365500Y-65746500D01*
X192365500Y-65746500D02*
X186269500Y-65746500D01*
X190841500Y-71842500D02*
X192365500Y-70318500D01*
X187793500Y-71842500D02*
X190841500Y-71842500D01*
X186269500Y-70318500D02*
X187793500Y-71842500D01*
X186269500Y-65746500D02*
X186269500Y-70318500D01*
D15*
X182967500Y-76668500D02*
X183729500Y-75652500D01*
X182967500Y-76668500D02*
X176871500Y-76668500D01*
X182713500Y-70826500D02*
X182713500Y-69048500D01*
D14*
X181951500Y-64222500D02*
X181951500Y-60158500D01*
X181951500Y-60158500D02*
X177887500Y-62190500D01*
D15*
X181189500Y-70826500D02*
X181189500Y-69048500D01*
X179665500Y-70826500D02*
X179665500Y-69048500D01*
X178141500Y-70826500D02*
X178141500Y-69048500D01*
D14*
X177887500Y-64222500D02*
X177887500Y-60158500D01*
X177887500Y-62190500D02*
X181951500Y-64222500D01*
D15*
X176871500Y-76668500D02*
X176617500Y-76668500D01*
X176617500Y-76668500D02*
X175855500Y-75652500D01*
X176617500Y-70826500D02*
X176617500Y-69048500D01*
D14*
X172553500Y-70572500D02*
X161377500Y-70572500D01*
X172553500Y-59396500D02*
X172553500Y-70572500D01*
X171791500Y-78192500D02*
X171791500Y-74636500D01*
X171791500Y-74636500D02*
X171283500Y-74636500D01*
X171537500Y-59396500D02*
X172553500Y-59396500D01*
X171283500Y-76160500D02*
X170267500Y-77176500D01*
X171283500Y-75144500D02*
X163155500Y-75144500D01*
X171283500Y-74636500D02*
X171283500Y-75144500D01*
X169505500Y-59396500D02*
X171537500Y-59396500D01*
X163155500Y-75144500D02*
X163155500Y-74636500D01*
X163155500Y-74636500D02*
X162647500Y-74636500D01*
X162647500Y-78192500D02*
X171791500Y-78192500D01*
X162647500Y-74636500D02*
X162647500Y-78192500D01*
X161377500Y-70572500D02*
X161377500Y-69048500D01*
X161377500Y-69556500D02*
X161377500Y-59396500D01*
X161377500Y-59396500D02*
X169505500Y-59396500D01*
X159345500Y-71334500D02*
X157313500Y-72858500D01*
X159345500Y-65746500D02*
X159345500Y-71334500D01*
X157313500Y-72858500D02*
X154265500Y-72858500D01*
X154265500Y-72858500D02*
X152233500Y-71334500D01*
X152233500Y-71334500D02*
X152233500Y-65746500D01*
X152233500Y-65746500D02*
X159345500Y-65746500D01*
X151217500Y-58380500D02*
X194397500Y-58380500D01*
X151217500Y-58380500D02*
X151217500Y-79462500D01*
D15*
X183729500Y-75652500D02*
X175855500Y-75652500D01*
X175855500Y-75652500D02*
X175855500Y-70826500D01*
X175855500Y-70826500D02*
X183729500Y-70826500D01*
X183729500Y-70826500D02*
X183729500Y-75652500D01*
D14*
X192279624Y-68794500D02*
G75*
G03*
X192279624Y-68794500I-2962124J0D01*
G01*
X189888038Y-76922500D02*
G75*
G03*
X189888038Y-76922500I-2094538J0D01*
G01*
X189317500Y-76922500D02*
G75*
G03*
X189317500Y-76922500I-1524000J0D01*
G01*
X171493920Y-76668500D02*
G75*
G03*
X171493920Y-76668500I-718420J0D01*
G01*
X159345500Y-60920500D02*
G75*
G03*
X159345500Y-60920500I-1524000J0D01*
G01*
X159991677Y-60920500D02*
G75*
G03*
X159991677Y-60920500I-2170177J0D01*
G01*
X159197268Y-69302500D02*
G75*
G03*
X159197268Y-69302500I-3407768J0D01*
G01*
D13*
X146862000Y-70004000D02*
X111182000Y-70004000D01*
X111182000Y-70004000D02*
X111182000Y-75304000D01*
X146862000Y-71654000D02*
X146862000Y-70004000D01*
X146862000Y-75304000D02*
X146862000Y-73654000D01*
X111182000Y-75304000D02*
X146862000Y-75304000D01*
X146862000Y-71654000D02*
G75*
G03*
X146862000Y-73654000I0J-1000000D01*
G01*
X127604000Y-57508000D02*
X127604000Y-57443000D01*
X127604000Y-57508000D02*
X124364000Y-57508000D01*
X127604000Y-55333000D02*
X127604000Y-55268000D01*
X127604000Y-55268000D02*
X124364000Y-55268000D01*
X124364000Y-57508000D02*
X124364000Y-57443000D01*
X124364000Y-55333000D02*
X124364000Y-55268000D01*
X171550000Y-48800000D02*
X171550000Y-55340000D01*
X171220000Y-48800000D02*
X171550000Y-48800000D01*
X169140000Y-48800000D02*
X168810000Y-48800000D01*
X168810000Y-48800000D02*
X168810000Y-55340000D01*
X171550000Y-55340000D02*
X171220000Y-55340000D01*
X168810000Y-55340000D02*
X169140000Y-55340000D01*
X120344000Y-58435000D02*
X126744000Y-58435000D01*
X120344000Y-63485000D02*
X126744000Y-63485000D01*
X120344000Y-58435000D02*
G75*
G03*
X120344000Y-63485000I0J-2525000D01*
G01*
X126744000Y-63485000D02*
G75*
G03*
X126744000Y-58435000I0J2525000D01*
G01*
X124202380Y-83124000D02*
X124832380Y-83124000D01*
X124517380Y-82809000D02*
X124517380Y-83439000D01*
X127702621Y-81733000D02*
X127702621Y-88193000D01*
X127742621Y-81733000D02*
X127742621Y-88193000D01*
X127782621Y-81733000D02*
X127782621Y-88193000D01*
X127822621Y-81735000D02*
X127822621Y-88191000D01*
X127862621Y-81736000D02*
X127862621Y-88190000D01*
X127902621Y-81739000D02*
X127902621Y-88187000D01*
X127942621Y-81741000D02*
X127942621Y-83923000D01*
X127942621Y-86003000D02*
X127942621Y-88185000D01*
X127982621Y-81745000D02*
X127982621Y-83923000D01*
X127982621Y-86003000D02*
X127982621Y-88181000D01*
X128022621Y-81748000D02*
X128022621Y-83923000D01*
X128022621Y-86003000D02*
X128022621Y-88178000D01*
X128062621Y-81752000D02*
X128062621Y-83923000D01*
X128062621Y-86003000D02*
X128062621Y-88174000D01*
X128102621Y-81757000D02*
X128102621Y-83923000D01*
X128102621Y-86003000D02*
X128102621Y-88169000D01*
X128142621Y-81762000D02*
X128142621Y-83923000D01*
X128142621Y-86003000D02*
X128142621Y-88164000D01*
X128182621Y-81768000D02*
X128182621Y-83923000D01*
X128182621Y-86003000D02*
X128182621Y-88158000D01*
X128222621Y-81774000D02*
X128222621Y-83923000D01*
X128222621Y-86003000D02*
X128222621Y-88152000D01*
X128262621Y-81781000D02*
X128262621Y-83923000D01*
X128262621Y-86003000D02*
X128262621Y-88145000D01*
X128302621Y-81788000D02*
X128302621Y-83923000D01*
X128302621Y-86003000D02*
X128302621Y-88138000D01*
X128342621Y-81796000D02*
X128342621Y-83923000D01*
X128342621Y-86003000D02*
X128342621Y-88130000D01*
X128382621Y-81804000D02*
X128382621Y-83923000D01*
X128382621Y-86003000D02*
X128382621Y-88122000D01*
X128423621Y-81813000D02*
X128423621Y-83923000D01*
X128423621Y-86003000D02*
X128423621Y-88113000D01*
X128463621Y-81822000D02*
X128463621Y-83923000D01*
X128463621Y-86003000D02*
X128463621Y-88104000D01*
X128503621Y-81832000D02*
X128503621Y-83923000D01*
X128503621Y-86003000D02*
X128503621Y-88094000D01*
X128543621Y-81842000D02*
X128543621Y-83923000D01*
X128543621Y-86003000D02*
X128543621Y-88084000D01*
X128583621Y-81853000D02*
X128583621Y-83923000D01*
X128583621Y-86003000D02*
X128583621Y-88073000D01*
X128623621Y-81865000D02*
X128623621Y-83923000D01*
X128623621Y-86003000D02*
X128623621Y-88061000D01*
X128663621Y-81877000D02*
X128663621Y-83923000D01*
X128663621Y-86003000D02*
X128663621Y-88049000D01*
X128703621Y-81889000D02*
X128703621Y-83923000D01*
X128703621Y-86003000D02*
X128703621Y-88037000D01*
X128743621Y-81902000D02*
X128743621Y-83923000D01*
X128743621Y-86003000D02*
X128743621Y-88024000D01*
X128783621Y-81916000D02*
X128783621Y-83923000D01*
X128783621Y-86003000D02*
X128783621Y-88010000D01*
X128823621Y-81930000D02*
X128823621Y-83923000D01*
X128823621Y-86003000D02*
X128823621Y-87996000D01*
X128863621Y-81945000D02*
X128863621Y-83923000D01*
X128863621Y-86003000D02*
X128863621Y-87981000D01*
X128903621Y-81961000D02*
X128903621Y-83923000D01*
X128903621Y-86003000D02*
X128903621Y-87965000D01*
X128943621Y-81977000D02*
X128943621Y-83923000D01*
X128943621Y-86003000D02*
X128943621Y-87949000D01*
X128983621Y-81993000D02*
X128983621Y-83923000D01*
X128983621Y-86003000D02*
X128983621Y-87933000D01*
X129023621Y-82011000D02*
X129023621Y-83923000D01*
X129023621Y-86003000D02*
X129023621Y-87915000D01*
X129063621Y-82029000D02*
X129063621Y-83923000D01*
X129063621Y-86003000D02*
X129063621Y-87897000D01*
X129103621Y-82047000D02*
X129103621Y-83923000D01*
X129103621Y-86003000D02*
X129103621Y-87879000D01*
X129143621Y-82067000D02*
X129143621Y-83923000D01*
X129143621Y-86003000D02*
X129143621Y-87859000D01*
X129183621Y-82087000D02*
X129183621Y-83923000D01*
X129183621Y-86003000D02*
X129183621Y-87839000D01*
X129223621Y-82107000D02*
X129223621Y-83923000D01*
X129223621Y-86003000D02*
X129223621Y-87819000D01*
X129263621Y-82129000D02*
X129263621Y-83923000D01*
X129263621Y-86003000D02*
X129263621Y-87797000D01*
X129303621Y-82151000D02*
X129303621Y-83923000D01*
X129303621Y-86003000D02*
X129303621Y-87775000D01*
X129343621Y-82173000D02*
X129343621Y-83923000D01*
X129343621Y-86003000D02*
X129343621Y-87753000D01*
X129383621Y-82197000D02*
X129383621Y-83923000D01*
X129383621Y-86003000D02*
X129383621Y-87729000D01*
X129423621Y-82221000D02*
X129423621Y-83923000D01*
X129423621Y-86003000D02*
X129423621Y-87705000D01*
X129463621Y-82247000D02*
X129463621Y-83923000D01*
X129463621Y-86003000D02*
X129463621Y-87679000D01*
X129503621Y-82273000D02*
X129503621Y-83923000D01*
X129503621Y-86003000D02*
X129503621Y-87653000D01*
X129543621Y-82299000D02*
X129543621Y-83923000D01*
X129543621Y-86003000D02*
X129543621Y-87627000D01*
X129583621Y-82327000D02*
X129583621Y-83923000D01*
X129583621Y-86003000D02*
X129583621Y-87599000D01*
X129623621Y-82356000D02*
X129623621Y-83923000D01*
X129623621Y-86003000D02*
X129623621Y-87570000D01*
X129663621Y-82385000D02*
X129663621Y-83923000D01*
X129663621Y-86003000D02*
X129663621Y-87541000D01*
X129703621Y-82415000D02*
X129703621Y-83923000D01*
X129703621Y-86003000D02*
X129703621Y-87511000D01*
X129743621Y-82447000D02*
X129743621Y-83923000D01*
X129743621Y-86003000D02*
X129743621Y-87479000D01*
X129783621Y-82479000D02*
X129783621Y-83923000D01*
X129783621Y-86003000D02*
X129783621Y-87447000D01*
X129823621Y-82513000D02*
X129823621Y-83923000D01*
X129823621Y-86003000D02*
X129823621Y-87413000D01*
X129863621Y-82547000D02*
X129863621Y-83923000D01*
X129863621Y-86003000D02*
X129863621Y-87379000D01*
X129903621Y-82583000D02*
X129903621Y-83923000D01*
X129903621Y-86003000D02*
X129903621Y-87343000D01*
X129943621Y-82620000D02*
X129943621Y-83923000D01*
X129943621Y-86003000D02*
X129943621Y-87306000D01*
X129983621Y-82658000D02*
X129983621Y-83923000D01*
X129983621Y-86003000D02*
X129983621Y-87268000D01*
X130023621Y-82698000D02*
X130023621Y-87228000D01*
X130063621Y-82739000D02*
X130063621Y-87187000D01*
X130103621Y-82781000D02*
X130103621Y-87145000D01*
X130143621Y-82826000D02*
X130143621Y-87100000D01*
X130183621Y-82871000D02*
X130183621Y-87055000D01*
X130223621Y-82919000D02*
X130223621Y-87007000D01*
X130263621Y-82968000D02*
X130263621Y-86958000D01*
X130303621Y-83019000D02*
X130303621Y-86907000D01*
X130343621Y-83073000D02*
X130343621Y-86853000D01*
X130383621Y-83129000D02*
X130383621Y-86797000D01*
X130423621Y-83187000D02*
X130423621Y-86739000D01*
X130463621Y-83249000D02*
X130463621Y-86677000D01*
X130503621Y-83313000D02*
X130503621Y-86613000D01*
X130543621Y-83382000D02*
X130543621Y-86544000D01*
X130583621Y-83454000D02*
X130583621Y-86472000D01*
X130623621Y-83531000D02*
X130623621Y-86395000D01*
X130663621Y-83613000D02*
X130663621Y-86313000D01*
X130703621Y-83701000D02*
X130703621Y-86225000D01*
X130743621Y-83798000D02*
X130743621Y-86128000D01*
X130783621Y-83904000D02*
X130783621Y-86022000D01*
X130823621Y-84023000D02*
X130823621Y-85903000D01*
X130863621Y-84161000D02*
X130863621Y-85765000D01*
X130903621Y-84330000D02*
X130903621Y-85596000D01*
X130943621Y-84561000D02*
X130943621Y-85365000D01*
X130972621Y-84963000D02*
G75*
G03*
X130972621Y-84963000I-3270000J0D01*
G01*
X159570000Y-43470000D02*
X146810000Y-43470000D01*
X159570000Y-43470000D02*
X159570000Y-46130000D01*
X146810000Y-43470000D02*
X146810000Y-46130000D01*
X162170000Y-44800000D02*
X162170000Y-46130000D01*
X162170000Y-46130000D02*
X160840000Y-46130000D01*
X159570000Y-46130000D02*
X146810000Y-46130000D01*
X115924000Y-45498000D02*
X115924000Y-52038000D01*
X115594000Y-45498000D02*
X115924000Y-45498000D01*
X113514000Y-45498000D02*
X113184000Y-45498000D01*
X113184000Y-45498000D02*
X113184000Y-52038000D01*
X115924000Y-52038000D02*
X115594000Y-52038000D01*
X113184000Y-52038000D02*
X113514000Y-52038000D01*
X142250000Y-65500000D02*
X143750000Y-65500000D01*
X146250000Y-64250000D02*
X146250000Y-59750000D01*
X139750000Y-59750000D02*
X139750000Y-64250000D01*
X143750000Y-58500000D02*
X142250000Y-58500000D01*
X126666000Y-64416000D02*
X126666000Y-67156000D01*
X126666000Y-64416000D02*
X131906000Y-64416000D01*
X126666000Y-67156000D02*
X131906000Y-67156000D01*
X131906000Y-64416000D02*
X131906000Y-67156000D01*
X173630000Y-85170000D02*
X165950000Y-85170000D01*
X173630000Y-85170000D02*
X173630000Y-87830000D01*
X165950000Y-85170000D02*
X165950000Y-87830000D01*
X176230000Y-86500000D02*
X176230000Y-87830000D01*
X176230000Y-87830000D02*
X174900000Y-87830000D01*
X173630000Y-87830000D02*
X165950000Y-87830000D01*
X133382000Y-54002000D02*
X139922000Y-54002000D01*
X133382000Y-54332000D02*
X133382000Y-54002000D01*
X133382000Y-56412000D02*
X133382000Y-56742000D01*
X133382000Y-56742000D02*
X139922000Y-56742000D01*
X139922000Y-54002000D02*
X139922000Y-54332000D01*
X139922000Y-56742000D02*
X139922000Y-56412000D01*
X118150000Y-89700000D02*
X118150000Y-102300000D01*
X118150000Y-102300000D02*
X128500000Y-102300000D01*
X128500000Y-94500000D02*
X129000000Y-94800000D01*
X128500000Y-99900000D02*
X128500000Y-94500000D01*
X128500000Y-101350000D02*
X129000000Y-101600000D01*
X128500000Y-102300000D02*
X128500000Y-101350000D01*
X129000000Y-89700000D02*
X118150000Y-89700000D01*
X129000000Y-94800000D02*
X129000000Y-89700000D01*
X129000000Y-99650000D02*
X128500000Y-99900000D01*
X129000000Y-99700000D02*
X129000000Y-99650000D01*
X129000000Y-101600000D02*
X129000000Y-99700000D01*
X153250000Y-90000000D02*
X153250000Y-102600000D01*
X153250000Y-102600000D02*
X163600000Y-102600000D01*
X163600000Y-94800000D02*
X164100000Y-95100000D01*
X163600000Y-100200000D02*
X163600000Y-94800000D01*
X163600000Y-101650000D02*
X164100000Y-101900000D01*
X163600000Y-102600000D02*
X163600000Y-101650000D01*
X164100000Y-90000000D02*
X153250000Y-90000000D01*
X164100000Y-95100000D02*
X164100000Y-90000000D01*
X164100000Y-99950000D02*
X163600000Y-100200000D01*
X164100000Y-100000000D02*
X164100000Y-99950000D01*
X164100000Y-101900000D02*
X164100000Y-100000000D01*
X196268000Y-91849000D02*
X181568000Y-91849000D01*
X196268000Y-82649000D02*
X196268000Y-91849000D01*
X187468000Y-82649000D02*
X196268000Y-82649000D01*
X182418000Y-92049000D02*
X181368000Y-92049000D01*
X181568000Y-91849000D02*
X181568000Y-89249000D01*
X181568000Y-85349000D02*
X181568000Y-82649000D01*
X181568000Y-82649000D02*
X183468000Y-82649000D01*
X181368000Y-90999000D02*
X181368000Y-92049000D01*
X133196000Y-45498000D02*
X133196000Y-52038000D01*
X132866000Y-45498000D02*
X133196000Y-45498000D01*
X130786000Y-45498000D02*
X130456000Y-45498000D01*
X130456000Y-45498000D02*
X130456000Y-52038000D01*
X133196000Y-52038000D02*
X132866000Y-52038000D01*
X130456000Y-52038000D02*
X130786000Y-52038000D01*
X125222000Y-43628000D02*
X117542000Y-43628000D01*
X125222000Y-43628000D02*
X125222000Y-46288000D01*
X117542000Y-43628000D02*
X117542000Y-46288000D01*
X127822000Y-44958000D02*
X127822000Y-46288000D01*
X127822000Y-46288000D02*
X126492000Y-46288000D01*
X125222000Y-46288000D02*
X117542000Y-46288000D01*
X143260000Y-101410000D02*
X143260000Y-80970000D01*
X143260000Y-80970000D02*
X137960000Y-80970000D01*
X141610000Y-101410000D02*
X143260000Y-101410000D01*
X137960000Y-101410000D02*
X139610000Y-101410000D01*
X137960000Y-80970000D02*
X137960000Y-101410000D01*
X141610000Y-101410000D02*
G75*
G03*
X139610000Y-101410000I-1000000J0D01*
G01*
X149120000Y-56742000D02*
X149120000Y-54002000D01*
X149120000Y-56742000D02*
X143880000Y-56742000D01*
X149120000Y-54002000D02*
X143880000Y-54002000D01*
X143880000Y-56742000D02*
X143880000Y-54002000D01*
X171450000Y-46034000D02*
X179130000Y-46034000D01*
X171450000Y-46034000D02*
X171450000Y-43374000D01*
X179130000Y-46034000D02*
X179130000Y-43374000D01*
X168850000Y-44704000D02*
X168850000Y-43374000D01*
X168850000Y-43374000D02*
X170180000Y-43374000D01*
X171450000Y-43374000D02*
X179130000Y-43374000D01*
X171870000Y-84245000D02*
X165330000Y-84245000D01*
X171870000Y-83915000D02*
X171870000Y-84245000D01*
X171870000Y-81835000D02*
X171870000Y-81505000D01*
X171870000Y-81505000D02*
X165330000Y-81505000D01*
X165330000Y-84245000D02*
X165330000Y-83915000D01*
X165330000Y-81505000D02*
X165330000Y-81835000D01*
X99120000Y-67370000D02*
X97790000Y-67370000D01*
X99120000Y-66040000D02*
X99120000Y-67370000D01*
X99120000Y-64770000D02*
X99120000Y-59630000D01*
X99120000Y-64770000D02*
X96460000Y-64770000D01*
X99120000Y-59630000D02*
X96460000Y-59630000D01*
X96460000Y-64770000D02*
X96460000Y-59630000D01*
%LPC*%
D16*
X130282000Y-79629000D03*
X127782000Y-79629000D03*
D17*
X104648000Y-63600000D03*
D16*
X104648000Y-61100000D03*
X177800000Y-48260000D03*
D18*
X177800000Y-55880000D03*
D19*
X100000000Y-98000000D03*
X192000000Y-50000000D03*
D16*
X121920000Y-56388000D03*
X119420000Y-56388000D03*
D20*
X104984000Y-73685000D03*
D21*
X104984000Y-76225000D03*
X104984000Y-78765000D03*
X104984000Y-81305000D03*
X104984000Y-83845000D03*
X104984000Y-86385000D03*
D22*
X192543300Y-77532100D03*
X192543300Y-60361700D03*
X153071700Y-60361700D03*
X153071700Y-77506700D03*
D17*
X145532000Y-68844000D03*
D18*
X142992000Y-68844000D03*
X140452000Y-68844000D03*
X137912000Y-68844000D03*
X135372000Y-68844000D03*
X132832000Y-68844000D03*
X130292000Y-68844000D03*
X127752000Y-68844000D03*
X125212000Y-68844000D03*
X122672000Y-68844000D03*
X120132000Y-68844000D03*
X117592000Y-68844000D03*
X115052000Y-68844000D03*
X112512000Y-68844000D03*
X112512000Y-76464000D03*
X115052000Y-76464000D03*
X117592000Y-76464000D03*
X120132000Y-76464000D03*
X122672000Y-76464000D03*
X125212000Y-76464000D03*
X127752000Y-76464000D03*
X130292000Y-76464000D03*
X132832000Y-76464000D03*
X135372000Y-76464000D03*
X137912000Y-76464000D03*
X140452000Y-76464000D03*
X142992000Y-76464000D03*
X145532000Y-76464000D03*
D16*
X127234000Y-56388000D03*
X124734000Y-56388000D03*
X170180000Y-48260000D03*
D18*
X170180000Y-55880000D03*
D23*
X121104000Y-60960000D03*
X125984000Y-60960000D03*
D17*
X126452621Y-84963000D03*
D16*
X128952621Y-84963000D03*
D20*
X160840000Y-44800000D03*
D21*
X158300000Y-44800000D03*
X155760000Y-44800000D03*
X153220000Y-44800000D03*
X150680000Y-44800000D03*
X148140000Y-44800000D03*
D16*
X114554000Y-44958000D03*
D18*
X114554000Y-52578000D03*
D24*
X140750000Y-65250000D03*
X140750000Y-58750000D03*
X145250000Y-65250000D03*
X145250000Y-58750000D03*
D16*
X128036000Y-65786000D03*
X130536000Y-65786000D03*
D20*
X174900000Y-86500000D03*
D21*
X172360000Y-86500000D03*
X169820000Y-86500000D03*
X167280000Y-86500000D03*
D16*
X132842000Y-55372000D03*
D18*
X140462000Y-55372000D03*
D25*
X120800000Y-96000000D03*
D26*
X125800000Y-96000000D03*
D19*
X192000000Y-98000000D03*
D25*
X155900000Y-96300000D03*
D26*
X160900000Y-96300000D03*
D27*
X182468000Y-87249000D03*
D28*
X188468000Y-87249000D03*
D29*
X185468000Y-82549000D03*
D16*
X131826000Y-44958000D03*
D18*
X131826000Y-52578000D03*
D20*
X126492000Y-44958000D03*
D21*
X123952000Y-44958000D03*
X121412000Y-44958000D03*
X118872000Y-44958000D03*
D17*
X144420000Y-100080000D03*
D18*
X144420000Y-97540000D03*
X144420000Y-95000000D03*
X144420000Y-92460000D03*
X144420000Y-89920000D03*
X144420000Y-87380000D03*
X144420000Y-84840000D03*
X144420000Y-82300000D03*
X136800000Y-82300000D03*
X136800000Y-84840000D03*
X136800000Y-87380000D03*
X136800000Y-89920000D03*
X136800000Y-92460000D03*
X136800000Y-95000000D03*
X136800000Y-97540000D03*
X136800000Y-100080000D03*
D16*
X147750000Y-55372000D03*
X145250000Y-55372000D03*
D20*
X170180000Y-44704000D03*
D21*
X172720000Y-44704000D03*
X175260000Y-44704000D03*
X177800000Y-44704000D03*
D16*
X172410000Y-82875000D03*
D18*
X164790000Y-82875000D03*
D19*
X100000000Y-50000000D03*
D20*
X97790000Y-66040000D03*
D21*
X97790000Y-63500000D03*
X97790000Y-60960000D03*
%LPD*%
M02*
