M48
; DRILL file {KiCad 7.0.7-7.0.7~ubuntu22.04.1} date Thu 07 Sep 2023 11:45:17 PM IST
; FORMAT={-:-/ absolute / metric / decimal}
; #@! TF.CreationDate,2023-09-07T23:45:17+05:30
; #@! TF.GenerationSoftware,Kicad,Pcbnew,7.0.7-7.0.7~ubuntu22.04.1
; #@! TF.FileFunction,Plated,1,2,PTH
FMAT,2
METRIC
; #@! TA.AperFunction,Plated,PTH,ViaDrill
T1C0.400
; #@! TA.AperFunction,Plated,PTH,ComponentDrill
T2C0.800
; #@! TA.AperFunction,Plated,PTH,ComponentDrill
T3C1.000
; #@! TA.AperFunction,Plated,PTH,ComponentDrill
T4C1.100
; #@! TA.AperFunction,Plated,PTH,ComponentDrill
T5C1.320
%
G90
G05
T1
X96.0Y-45.75
X97.0Y-79.5
X97.5Y-86.75
X97.75Y-91.75
X97.79Y-76.21
X101.5Y-57.75
X101.5Y-67.0
X104.0Y-46.0
X104.75Y-91.75
X105.75Y-99.25
X106.25Y-67.0
X108.0Y-73.5
X108.5Y-46.25
X108.75Y-57.5
X109.0Y-51.75
X109.0Y-77.25
X109.25Y-84.5
X109.5Y-71.25
X109.5Y-80.0
X109.5Y-90.0
X109.5Y-95.75
X112.5Y-82.6
X113.5Y-71.25
X114.0Y-62.75
X114.0Y-65.75
X114.25Y-80.0
X114.75Y-95.5
X115.25Y-58.25
X116.0Y-88.5
X119.5Y-49.5
X120.0Y-80.0
X121.25Y-74.5
X121.5Y-86.0
X123.5Y-49.5
X126.5Y-70.25
X127.0Y-49.25
X128.75Y-71.25
X130.0Y-74.25
X130.0Y-98.75
X130.25Y-92.5
X131.75Y-59.5
X132.0Y-71.25
X132.5Y-99.5
X133.0Y-84.5
X133.25Y-62.75
X133.5Y-91.5
X135.0Y-79.0
X136.5Y-51.5
X136.75Y-60.75
X136.75Y-65.25
X137.0Y-74.25
X137.1Y-80.0
X137.2Y-78.5
X137.75Y-46.75
X139.0Y-71.25
X139.0Y-88.5
X139.5Y-80.0
X139.5Y-86.4
X141.25Y-51.75
X141.4Y-86.4
X141.5Y-61.75
X141.5Y-99.0
X141.8Y-78.5
X142.0Y-74.25
X142.5Y-45.25
X144.5Y-51.75
X145.714Y-79.186
X146.5Y-48.5
X147.0Y-91.25
X147.7Y-77.9
X147.75Y-84.75
X148.5Y-61.5
X148.5Y-64.75
X148.5Y-68.75
X148.5Y-100.0
X149.0Y-82.5
X149.25Y-51.75
X150.5Y-100.75
X150.8Y-81.0
X152.0Y-51.5
X153.0Y-88.0
X153.75Y-84.5
X154.0Y-81.25
X157.2Y-48.5
X159.0Y-51.75
X159.5Y-75.25
X160.25Y-68.0
X160.25Y-81.0
X160.25Y-84.5
X160.25Y-88.0
X160.5Y-62.5
X162.75Y-51.75
X165.25Y-71.75
X166.25Y-61.5
X166.75Y-51.75
X166.75Y-99.25
X167.0Y-92.75
X169.25Y-67.5
X170.25Y-74.25
X173.5Y-51.75
X174.25Y-61.5
X175.0Y-74.25
X175.75Y-92.5
X175.75Y-99.25
X181.0Y-61.75
X181.0Y-67.25
X185.5Y-51.5
X186.25Y-45.5
X186.5Y-94.0
X186.5Y-99.5
X187.0Y-61.25
X187.75Y-56.0
X188.0Y-68.0
T2
X104.648Y-61.1
X104.648Y-63.6
X112.512Y-68.844
X112.512Y-76.464
X114.554Y-44.958
X114.554Y-52.578
X115.052Y-68.844
X115.052Y-76.464
X117.592Y-68.844
X117.592Y-76.464
X119.42Y-56.388
X120.132Y-68.844
X120.132Y-76.464
X121.104Y-60.96
X121.92Y-56.388
X122.672Y-68.844
X122.672Y-76.464
X124.734Y-56.388
X125.212Y-68.844
X125.212Y-76.464
X125.984Y-60.96
X126.453Y-84.963
X127.234Y-56.388
X127.752Y-68.844
X127.752Y-76.464
X127.782Y-79.629
X128.036Y-65.786
X128.953Y-84.963
X130.282Y-79.629
X130.292Y-68.844
X130.292Y-76.464
X130.536Y-65.786
X131.826Y-44.958
X131.826Y-52.578
X132.832Y-68.844
X132.832Y-76.464
X132.842Y-55.372
X135.372Y-68.844
X135.372Y-76.464
X136.8Y-82.3
X136.8Y-84.84
X136.8Y-87.38
X136.8Y-89.92
X136.8Y-92.46
X136.8Y-95.0
X136.8Y-97.54
X136.8Y-100.08
X137.912Y-68.844
X137.912Y-76.464
X140.452Y-68.844
X140.452Y-76.464
X140.462Y-55.372
X142.992Y-68.844
X142.992Y-76.464
X144.42Y-82.3
X144.42Y-84.84
X144.42Y-87.38
X144.42Y-89.92
X144.42Y-92.46
X144.42Y-95.0
X144.42Y-97.54
X144.42Y-100.08
X145.25Y-55.372
X145.532Y-68.844
X145.532Y-76.464
X147.75Y-55.372
X164.79Y-82.875
X170.18Y-48.26
X170.18Y-55.88
X172.41Y-82.875
X177.8Y-48.26
X177.8Y-55.88
T3
X97.79Y-60.96
X97.79Y-63.5
X97.79Y-66.04
X104.984Y-73.685
X104.984Y-76.225
X104.984Y-78.765
X104.984Y-81.305
X104.984Y-83.845
X104.984Y-86.385
X118.872Y-44.958
X121.412Y-44.958
X123.952Y-44.958
X126.492Y-44.958
X148.14Y-44.8
X150.68Y-44.8
X153.072Y-60.362
X153.072Y-77.507
X153.22Y-44.8
X155.76Y-44.8
X158.3Y-44.8
X160.84Y-44.8
X167.28Y-86.5
X169.82Y-86.5
X170.18Y-44.704
X172.36Y-86.5
X172.72Y-44.704
X174.9Y-86.5
X175.26Y-44.704
X177.8Y-44.704
X192.543Y-60.362
X192.543Y-77.532
T4
X140.75Y-58.75
X140.75Y-65.25
X145.25Y-58.75
X145.25Y-65.25
T5
X120.8Y-96.0
X125.8Y-96.0
X155.9Y-96.3
X160.9Y-96.3
T3
X182.468Y-88.249G85X182.468Y-86.249
G05
X186.468Y-82.549G85X184.468Y-82.549
G05
X188.468Y-88.249G85X188.468Y-86.249
G05
T0
M30
